<?xml version="1.0" standalone="no"?>
<!DOCTYPE svg PUBLIC "-//W3C//DTD SVG 1.1//EN" "http://www.w3.org/Graphics/SVG/1.1/DTD/svg11.dtd" >
<svg>
<metadata>
Created by FontForge 20110222 at Mon Mar  7 08:23:00 2011
 By www-data
FREEWARE!
</metadata>
<defs>
<font id="SportsAndHobbies" horiz-adv-x="2136" >
  <font-face 
    font-family="Sports and Hobbies"
    font-weight="400"
    font-stretch="normal"
    units-per-em="2048"
    panose-1="4 2 5 0 0 0 0 0 0 0"
    ascent="1638"
    descent="-410"
    x-height="1587"
    cap-height="1745"
    bbox="-8 2 2048 2048"
    underline-thickness="50"
    underline-position="-75"
    unicode-range="U+0020-02C7"
  />
    <missing-glyph />
    <glyph glyph-name="one" unicode="1" 
d="M1012 1083l-21 -71l8 -17l-127 -403h-301l29 67h231l109 353l16 12l35 129l-80 244h-4l-8 26l53 17l9 -25l-5 -6l56 -192l59 192l-6 6l10 25l53 -17l-8 -26h-8l-80 -248l39 -125l16 -12l109 -353h231l29 -67h-303l-125 403l8 17zM1024 428q191 0 362.5 41t303.5 115.5
t205 172.5t73 208q0 107 -73 205t-204 173t-302.5 116.5t-364.5 41.5q-189 0 -362.5 -42t-306 -116.5t-206 -173t-73.5 -204.5q0 -109 73.5 -207t207 -173t305 -116t362.5 -41zM2036 608q0 -124 -78 -231.5t-217.5 -189.5t-326.5 -128.5t-390 -46.5q-275 0 -508 79
t-370.5 215t-137.5 298v352q0 120 79.5 229.5t219.5 190.5t324.5 126.5t392.5 45.5q207 0 392 -46t324.5 -127.5t217.5 -189t78 -229.5v-348z" />
    <glyph glyph-name="two" unicode="2" horiz-adv-x="848" 
d="M709 1356h-134v-117q27 15 50 34t43.5 40.5t40.5 42.5zM760 1473h-185v-89h144q36 45 41 89zM575 1501h193q12 52 12 86h-205v-86zM772 1704h-197v-88h205q0 30 -8 88zM575 1733h193q-2 17 -33 88h-160v-88zM575 1980v-131h142q-27 47 -59 79t-83 52zM424 1356v-160
q45 0 65 5.5t58 23.5v131h-123zM547 1473h-123v-89h123v89zM547 1501v86h-123v-86h123zM547 1704h-123v-88h123v88zM547 1821h-123v-88h123v88zM424 2019v-170h123v144q-80 26 -123 26zM408 1141q-89 0 -115 14q28 -40 51.5 -107t39 -144.5t24.5 -164.5q26 278 112 416
q-24 -14 -112 -14zM408 2048q105 0 194 -52.5t144.5 -145.5t62.5 -205q0 -170 -38.5 -237t-137.5 -175.5t-148 -250t-49 -429.5q17 0 17 -12q8 -137 8 -275q0 -137 -8 -262h-45h-43q-11 148 -11 262q0 113 11 275q0 12 16 12q0 289 -50 431.5t-149.5 249.5t-138.5 175
t-39 236q7 113 63.5 206t145.5 145t195 52zM104 1356q20 -22 38.5 -42t42.5 -39.5t51 -35.5v117h-132zM51 1473q5 -44 41 -89h144v89h-185zM236 1501v86h-203q0 -28 10 -86h193zM41 1704q-8 -58 -8 -88h203v88h-195zM236 1733v88h-160q-14 -29 -18 -38t-9 -23.5t-6 -26.5
h193zM236 1980q-52 -21 -80.5 -50.5t-59.5 -80.5h140v131zM391 1356h-123v-131q38 -19 57 -24t66 -5v160zM268 1473v-89h123v89h-123zM268 1501h123v86h-123v-86zM268 1704v-88h123v88h-123zM268 1821v-88h123v88h-123zM391 2019q-43 0 -123 -26v-144h123v170z" />
    <glyph glyph-name="three" unicode="3" horiz-adv-x="625" 
d="M76 567h96v97q-48 -30 -96 -97zM43 477h129v70h-104q-19 -28 -25 -70zM172 453h-135q-12 -40 -12 -72h147v72zM29 289h143v67h-147q0 -49 4 -67zM172 264h-135q5 -32 22 -71h113v71zM172 59v109h-100q22 -39 43.5 -63.5t56.5 -45.5zM285 567v138q-26 -2 -44 -8.5
t-40 -20.5v-109h84zM201 477h84v70h-84v-70zM201 453v-72h84v72h-84zM201 289h84v67h-84v-67zM201 193h84v71h-84v-71zM285 25v143h-84v-125q18 -7 33.5 -11t50.5 -7zM299 4q-120 0 -203 94t-92 238q0 97 22 163t56 108.5t83 85.5t71 67q8 4 18 52t10 112v675h-20v449h108
v-449h-20v-675q0 -67 10.5 -113.5t22.5 -50.5q23 -25 76.5 -73t84 -86t50.5 -102.5t20 -162.5q-9 -143 -93.5 -237.5t-203.5 -94.5zM516 567q-25 36 -43.5 58.5t-44.5 38.5v-97h88zM553 477q-6 42 -25 70h-100v-70h125zM428 453v-72h143q0 31 -12 72h-131zM567 289
q4 18 4 67h-143v-67h139zM428 264v-71h109q16 30 22 71h-131zM428 59q37 21 57.5 45.5t42.5 63.5h-100v-109zM315 567h80l4 113q-40 17 -84 25v-138zM399 477v70h-84v-70h84zM399 453h-84v-72h84v72zM399 289v67h-84v-67h84zM399 193v71h-84v-71h84zM315 25q53 5 84 22v121
h-84v-143z" />
    <glyph glyph-name="four" unicode="4" horiz-adv-x="1755" 
d="M1124 365q41 -26 61.5 -66.5t20.5 -85.5q0 -62 -35 -109q-27 -39 -68 -61.5t-85 -22.5q-58 0 -115 39q-36 29 -56 71t-20 87q0 57 33 102q56 82 154 82q62 0 110 -36zM25 356l176 -120l-21 -27l-172 123zM55 399l176 -123l-16 -24l-178 125zM76 528l256 -188
q10 -2 10 -16q0 -11 -6 -17l-25 -35q-5 -8 -18 -8q-10 0 -12 4l-256 185q-11 2 -11 16q0 10 2 14l27 37q7 10 20 10q5 0 7.5 -0.5t5.5 -1.5zM147 629l261 -185q8 -8 8 -18q0 -8 -4 -14l-25 -39q-5 -11 -20 -11q-13 0 -19 3l-256 188q-10 2 -10 18q1 4 1.5 7.5t0.5 9.5l29 37
q8 8 20 8q6 0 14 -4zM219 727l256 -182q10 -7 10 -23q0 -8 -2 -10l-26 -37q-7 -10 -19 -10q-10 0 -14 4l-260 182q-10 10 -10 21q0 9 6 12l28 37q3 10 19 10q8 0 12 -4zM289 827l260 -180q12 -6 12 -16q0 -7 -8 -19l-29 -41q-3 -10 -14 -10q-9 0 -18 6l-256 185q-9 11 -9 20
q0 4 4 12l25 39q6 13 16 13q9 0 17 -9zM1032 1935l383 -270q94 -65 146.5 -167t52.5 -216q0 -71 -22 -140.5t-64 -129.5l-197 -285q-70 -96 -171.5 -146.5t-213.5 -50.5q-151 0 -274 91l-383 268q-97 67 -149 169.5t-52 213.5q0 150 88 272l201 281q37 53 78.5 88.5t90 60
t101.5 37t111 12.5q155 0 274 -88zM1020 356q-63 0 -105.5 -41.5t-42.5 -105.5q0 -60 43 -103t105 -43q60 0 103.5 43.5t43.5 102.5q0 41 -20 75t-53.5 53t-73.5 19z" />
    <glyph glyph-name="five" unicode="5" horiz-adv-x="1516" 
d="M811 2011q118 -21 219 -82.5t173 -150t110.5 -196t38.5 -222.5q0 -64 -13 -123q-22 -115 -83.5 -216t-150.5 -173.5t-196.5 -112t-224.5 -39.5q-63 0 -125 13q-155 31 -278 126.5t-192 234t-69 294.5q0 55 13 125q24 116 84 215.5t146.5 170.5t196.5 110.5t222 39.5
q69 0 129 -14zM819 156q-48 11 -83.5 52.5t-35.5 90.5q0 10 5 25q10 54 48.5 86t90.5 32q18 0 28 -2q56 -11 89.5 -49t33.5 -92q0 -9 -4 -31q-9 -50 -51 -82t-92 -32q-19 0 -29 2zM336 180l84 436l227 -45l-84 -436q-10 -66 -27 -93.5t-61 -27.5q-20 0 -47 6q-58 9 -80 30
t-22 59q0 28 10 71zM424 633l16 80l228 -45l-17 -80z" />
    <glyph glyph-name="six" unicode="6" horiz-adv-x="2140" 
d="M449 1171h-332v-387zM1604 1171l335 -387v387h-335zM2007 1372v-1196l33 -172h-131l30 172v471l-440 524h-944l-438 -524v-471l30 -172h-135l33 172v1196h1962z" />
    <glyph glyph-name="seven" unicode="7" horiz-adv-x="2148" 
d="M1704 293v131l160 4v-131zM449 293v131l159 -8v-131zM1196 281v127l160 8v-131zM692 285v131l160 -8v-127zM1440 285v131l159 8v-131zM184 297v131l160 -4v-131zM932 281v127h160v-127h-160zM1704 96v127l160 13v-132zM449 96v127l159 -4v-127zM1196 84v129l160 6v-129z
M692 92v127l160 -6v-129zM1440 92v127l159 4v-127zM184 104v132l160 -13v-127zM932 84v127h160v-127h-160zM1704 483v133l160 9v-125zM449 483v133l159 -4v-133zM1196 471v133l160 8v-133zM692 479v133l160 -8v-133zM1440 479v133l159 4v-133zM184 500v125l160 -9v-133z
M932 471v133h160v-133h-160zM1704 684v127l160 12v-127zM449 684v127l159 -6v-129zM1196 672v129l160 2v-127zM692 676v127l160 -2v-129zM1440 676v129l159 6v-127zM184 696v127l160 -8v-131zM932 672v127h160v-127h-160zM4 903h143v-899h-143v899zM1905 903h143v-899h-143
v899z" />
    <glyph glyph-name="eight" unicode="8" horiz-adv-x="725" 
d="M268 117l303 1558l-8 33l53 285q14 39 43 39q29 -3 29 -56l-55 -280l-21 -31l-309 -1565l-14 -80q-5 -16 -45 -16l-203 12q-16 3 -24.5 15.5t-8.5 27.5v54q3 15 14.5 24.5t24.5 9.5z" />
    <glyph glyph-name="nine" unicode="9" horiz-adv-x="1133" 
d="M733 231q7 39 35.5 70.5t60 66t52 94.5t20.5 163v34v940q0 31 -12 55t-31 41.5t-62.5 49.5t-52.5 39q-30 -4 -94 -4q23 -15 57.5 -38.5t54 -44t32 -51.5t12.5 -77l-17 -1112q0 -37 -21 -60t-64.5 -53t-65 -58.5t-21.5 -76.5zM457 1784q-58 -92 -78 -209.5t-23 -245.5
t-6.5 -239t-27.5 -138q-17 -77 -17 -290q0 -202 6 -426q80 -33 185 -33q44 0 77 6q3 63 27 97t70.5 65t66 49.5t19.5 54.5l-4 1090q0 69 -32.5 109t-119.5 102q-4 0 -7 -0.5t-7 -1.5q-8 1 -15.5 1.5t-21.5 0.5l-33 -1368l-16 1372q-29 0 -43 4zM709 1833q39 0 63 8l21 101
q-35 -18 -76 -21zM420 1933q-14 -22 -14 -47q0 -19 14 -47q55 -18 137 -18q49 0 119 8l8 88q-87 -6 -113 -6q-86 0 -151 22zM188 940q19 -12 33 -12q43 0 43 110v27v324q-42 -65 -75 -167t-33 -180q0 -76 32 -102zM391 1944q-20 26 -39 26q-28 -3 -28 -76q0 -89 32 -161
q0 1 1 1.5l1 0.5q-13 -20 -60 -93t-103 -177t-98 -215.5t-42 -198.5q0 -53 17.5 -90.5t56.5 -63.5q18 -12 41 -12q30 0 53 14h-18q-12 0 -21 4q-61 27 -61 123q0 140 102 370.5t183 354.5q-37 95 -37 139q0 39 20 54zM272 903q-49 -59 -106 -59q-40 0 -76 29.5t-57 73
t-21 85.5q12 177 86.5 336.5t212.5 364.5q-22 93 -22 161q0 119 69 119q13 0 41 -8q42 39 205 39q92 0 155.5 -21t63.5 -67l-35 -152q17 -18 63.5 -53t69.5 -56.5t27 -49.5v-1002q0 -156 -28.5 -217.5t-79.5 -108.5t-64 -98v-151q-135 -60 -289 -60q-132 0 -219 39z" />
    <glyph glyph-name="zero" unicode="0" 
d="M1217 1112q236 0 380.5 -18.5t242.5 -73.5t147 -165t49 -292q-1 -243 -131.5 -364.5t-339.5 -156t-545 -34.5q-238 0 -410 19t-310 77t-215 171t-81 288q15 196 90 308.5t200 163.5t285 64t418 13v180h-305q-51 0 -80.5 35t-29.5 82q0 49 29 84t81 35h369q90 0 123 -32.5
t33 -123.5v-260zM1968 752q-22 148 -125.5 217.5t-260 87.5t-427.5 18h-127q-230 0 -366.5 -7t-255.5 -36.5t-204 -97.5t-122 -182h1888zM1968 356h-1888q50 -102 135.5 -165.5t203 -95t256 -43t333.5 -11.5q205 0 349 8t266.5 38t211 94.5t133.5 174.5z" />
    <glyph glyph-name="hyphen" unicode="-" horiz-adv-x="2220" 
d="M811 1780q30 53 74.5 80.5t93.5 27.5q48 0 92.5 -27.5t73.5 -80.5l862 -1483q25 -45 25 -88q0 -77 -60 -130.5t-168 -53.5h-1560q-70 0 -125 33.5t-86 86.5t-31 105q0 37 16 69zM868 1749l-770 -1434q-14 -28 -14 -65q0 -60 45.5 -103t118.5 -43l1503 -4q195 0 195 105
q0 35 -23 76l-827 1464q-20 35 -52 54.5t-67 19.5q-72 0 -109 -70zM1176 1159q-52 0 -87.5 36.5t-35.5 84.5q0 51 34.5 88t88.5 37q32 0 58.5 -17t42 -46t15.5 -62q0 -30 -15.5 -58.5t-42 -45.5t-58.5 -17zM805 1159q-53 0 -91 36t-38 85q0 51 37 88t92 37q29 0 56.5 -17
t45 -46t17.5 -62q0 -47 -38 -84t-81 -37zM983 1473q-53 0 -88 36t-35 86q0 49 35 85t88 36q47 0 82 -36t35 -85q0 -50 -35 -86t-82 -36zM1372 827q-46 0 -82.5 37.5t-36.5 87.5q0 49 36 86t83 37q51 0 87 -37t36 -86q0 -50 -36.5 -87.5t-86.5 -37.5zM983 827q-52 0 -87.5 37
t-35.5 88q0 49 35 86t88 37q46 0 81.5 -37t35.5 -86q0 -50 -35.5 -87.5t-81.5 -37.5zM633 827q-50 0 -87.5 37.5t-37.5 87.5q0 49 37 86t88 37q47 0 83 -37t36 -86q0 -50 -36.5 -87.5t-82.5 -37.5zM1561 475q-46 0 -83.5 37.5t-37.5 83.5q0 49 37 87t84 38q50 0 88.5 -37.5
t38.5 -87.5q0 -47 -38.5 -84t-88.5 -37zM1192 475q-47 0 -84 37t-37 84q0 50 36.5 87.5t84.5 37.5q34 0 62.5 -17t45.5 -45.5t17 -62.5q0 -48 -37.5 -84.5t-87.5 -36.5zM823 475q-49 0 -86 37t-37 84q0 50 36.5 87.5t86.5 37.5t85.5 -37.5t35.5 -87.5q0 -47 -36 -84t-85 -37
zM449 475q-50 0 -87.5 36.5t-37.5 84.5q0 51 37 88t88 37q48 0 83 -37.5t35 -87.5q0 -47 -35.5 -84t-82.5 -37zM1749 143q-48 0 -84.5 35.5t-36.5 85.5t35.5 85.5t85.5 35.5q52 0 87.5 -35.5t35.5 -85.5t-36.5 -85.5t-86.5 -35.5zM1339 143q-47 0 -84.5 36t-37.5 85t37 85
t85 36q50 0 85.5 -35.5t35.5 -85.5t-36.5 -85.5t-84.5 -35.5zM969 143q-51 0 -88 35.5t-37 85.5t36.5 85.5t88.5 35.5q48 0 83 -36t35 -85t-36 -85t-82 -36zM616 143q-46 0 -85 35.5t-39 85.5t38 85.5t86 35.5q50 0 86.5 -35.5t36.5 -85.5t-37.5 -85.5t-85.5 -35.5zM264 143
q-50 0 -87.5 36t-37.5 85t37 85t88 36q50 0 84.5 -35.5t34.5 -85.5t-35.5 -85.5t-83.5 -35.5z" />
    <glyph glyph-name="equal" unicode="=" horiz-adv-x="956" 
d="M469 4q-73 3 -118.5 55t-66 137.5t-26.5 181t-10 251.5q0 150 -27.5 276.5t-85.5 323.5t-86 324.5t-37 297.5q8 -2 27 -2q49 0 103 27.5t92 71t47 92.5q87 -62 184 -62q88 0 174 54q22 -63 61.5 -100t82.5 -55t102 -30q1 -11 1.5 -21t0.5 -28q0 -96 -26 -210t-77 -299.5
t-79.5 -329t-28.5 -283.5v-33q8 -74 8 -156q0 -119 -18.5 -227t-66.5 -181.5t-130 -74.5zM471 684q-79 0 -123.5 -102t-44.5 -209q5 -92 26 -163t57.5 -113t82.5 -42q53 0 91.5 47.5t58.5 125t20 153.5q0 47 -10.5 98.5t-31 98t-53 76.5t-73.5 30zM16 1839l299 -1163l17 24z
M391 760l25 20l-129 1248zM881 1843l-289 -1122l20 -25zM633 2005l-146 -1217l21 -4z" />
    <glyph glyph-name="semicolon" unicode=";" horiz-adv-x="655" 
d="M172 1948l305 80v-357l-305 109v168zM160 1927v-127l-156 80zM485 59l2 1977h21l4 -1977l117 -4l-54 -12l21 -18l-55 8l12 -29l-53 12l-51 -12l12 29l-55 -8l20 18l-49 12zM240 1927v-22h20v-117h25v139h-45zM401 1868q11 9 11 24q0 16 -13 31q-10 10 -24 10
q-21 0 -31 -10t-10 -27q0 -10 5 -19l5 -9q-18 -9 -18 -35q0 -17 6 -29q13 -20 39 -20q25 0 37 20q10 16 10 31q0 25 -17 33zM356 1896q0 5 6 9t11 4q6 0 11 -5t5 -12q0 -12 -16 -12q-17 0 -17 16zM352 1825q-2 4 -2 10q0 16 23 16q6 0 13 -6.5t7 -19.5q-10 -17 -22 -17
q-16 0 -19 17z" />
    <glyph glyph-name="quotesingle" unicode="'" horiz-adv-x="2140" 
d="M1028 8q-204 0 -389 75.5t-327 211t-221 315t-79 373.5q0 262 136 486.5t370 355.5t510 131q271 0 504 -131t370.5 -355.5t137.5 -486.5q0 -196 -78.5 -373t-220.5 -313.5t-327 -212.5t-386 -76zM1044 12q180 29 317.5 120t230 227.5t138.5 296.5t46 331q0 174 -46 334
t-139 294t-231 223t-316 114q159 -254 240.5 -510t81.5 -504q0 -495 -322 -926zM1004 1952q-175 -27 -313.5 -118t-231.5 -227t-139 -296t-46 -332t46 -332.5t140 -296t232 -224t316 -114.5q-326 517 -326 1016q0 496 322 924z" />
    <glyph glyph-name="comma" unicode="," horiz-adv-x="2404" 
d="M780 1032q-16 56 -16 96q0 66 30 113t76 69.5t99 22.5q27 0 51 -6q72 -16 116 -71.5t44 -127.5q0 -47 -21 -88l-106 -235l223 84l41 -96l-381 -150l-37 100l150 314q18 33 18 71q0 70 -80 93q-16 4 -26 4q-40 0 -65.5 -27.5t-25.5 -64.5q0 -26 17 -58zM449 188
q-208 146 -321.5 373t-113.5 475q0 103 19.5 201t61 195t98.5 180q141 206 360 319t461 113q70 0 147.5 -12t147.5 -33.5t141.5 -56.5t136.5 -82q143 -98 241.5 -231.5t149 -290t50.5 -316.5q0 -154 -45.5 -299t-135.5 -270q-74 -108 -167 -188.5t-200.5 -136.5t-226.5 -85
t-239 -29q-311 0 -565 174zM47 987q18 -135 41 -219.5t58 -151.5t110 -188h70q229 0 462.5 51t450 140t407 206t334.5 246q-12 157 -61.5 284.5t-146.5 268.5q-224 -3 -438 -40t-428 -112t-431.5 -196t-427.5 -289z" />
    <glyph glyph-name="period" unicode="." horiz-adv-x="1700" 
d="M1071 1763h-508q0 73 34 134t93.5 98t128.5 37q67 0 125 -34.5t92.5 -96t34.5 -134.5v-4zM563 1753h508v-37h-508v37zM563 1704h508v-37h-508v37zM563 1649h508l25 -56h-555zM8 29l533 1548h559l520 -1569q-32 73 -75.5 100t-125.5 27t-136.5 -27.5t-57.5 -87.5
q-6 60 -63 87.5t-142 27.5q-86 0 -142 -27.5t-59 -87.5q-6 60 -62 87.5t-141 27.5t-141 -27.5t-59 -87.5q-3 60 -59 87.5t-138 27.5q-85 0 -144 -26.5t-67 -79.5zM643 1516l-278 -1323l55 -76l72 71zM987 1516l158 -1328l72 -71l55 76zM811 1511l-72 -1331l80 -71l76 71z
" />
    <glyph glyph-name="slash" unicode="/" 
d="M676 1384h571v-100h-450v-197h-121v297zM637 1051h680q22 0 38.5 -16.5t16.5 -39.5v-123q0 -20 -15.5 -32.5t-39.5 -12.5h-680q-26 0 -41.5 12.5t-15.5 32.5v123q0 23 16.5 39.5t40.5 16.5zM2032 481h-2020q0 62 20 119t55 99t81 65.5t96 23.5h1516q51 0 97 -23.5
t81 -66.5t54.5 -99t19.5 -118zM2036 385q0 -102 -34.5 -190.5t-92 -139.5t-125.5 -51h-1516q-68 0 -125 51t-90 139t-33 191h2016z" />
    <glyph glyph-name="space" unicode=" " horiz-adv-x="0" 
 />
    <glyph glyph-name="asciitilde" unicode="~" horiz-adv-x="0" 
 />
    <glyph glyph-name="exclam" unicode="!" horiz-adv-x="1808" 
d="M338 1456l119 55l-33 41zM414 1360l114 55l-28 41zM489 1260l115 57l-33 39zM561 1163l117 58l-31 39zM637 1067l113 57l-33 35zM705 973l116 55l-33 39zM776 877l121 51l-33 45zM854 780l115 56l-33 41zM926 688l114 51l-32 41zM997 588l115 55l-29 41zM1073 487l117 58
l-35 43zM1149 391l113 58l-33 38zM608 1661l-114 -53l30 -39zM684 1565l-115 -58l31 -39zM758 1468l-113 -57l27 -39zM829 1368l-112 -55l26 -41zM905 1272l-117 -55l31 -41zM977 1180l-117 -56l33 -45zM1053 1079l-115 -55l27 -41zM1124 983l-114 -55l26 -39zM1194 889
l-113 -58l27 -38zM1266 793l-113 -58l31 -43zM1341 692l-116 -51l30 -41zM1417 596l-117 -55l27 -41zM37 1419q-10 90 -10 154q0 87 14 157.5t44 125t79 88.5q78 63 203 63q76 0 163.5 -23t178.5 -63zM965 135q-112 51 -230.5 131t-221 177t-169.5 190q-101 134 -183.5 337
t-115.5 402l703 529q120 -58 236 -136t219.5 -171.5t172.5 -182.5q55 -66 107 -154.5t92.5 -181.5t70 -193t44.5 -194zM1014 117l682 524q10 -82 10 -143q0 -137 -37 -239.5t-113 -154.5q-79 -65 -210 -65q-76 0 -157 19.5t-175 58.5zM401 1616l904 -1196l41 33l-906 1192z
" />
    <glyph glyph-name="at" unicode="@" horiz-adv-x="2177" 
d="M1579 633q-18 0 -18 14q0 21 18 21q16 0 16 -21q0 -14 -16 -14zM1436 713q-21 0 -21 18q0 6 5 11.5t16 5.5q6 0 11 -5.5t5 -11.5q0 -18 -16 -18zM1300 809q-20 0 -20 14q0 21 20 21q17 0 17 -21q0 -14 -17 -14zM1192 907q-16 0 -16 21q0 6 5 11t11 5q20 0 20 -16
q0 -21 -20 -21zM1112 1032q-20 0 -20 17q0 18 20 18q16 0 16 -18q0 -7 -5 -12t-11 -5zM1065 1159q-8 0 -14.5 4.5t-6.5 12.5q0 20 21 20q6 0 10 -6t4 -14q0 -7 -4 -12t-10 -5zM956 1448q-12 0 -20 8t-8 21t7.5 19.5t20.5 6.5q11 0 19 -6.5t8 -19.5t-8.5 -21t-18.5 -8z
M928 1599q-11 0 -20 9t-9 20q0 13 9 21t20 8q12 0 20 -8t8 -21q0 -11 -8 -20t-20 -9zM213 516v227q10 162 47 265q10 25 29.5 58t38.5 65.5t28 56.5q12 34 24.5 100t19 138.5t6.5 136.5q0 36 -3 53v16q136 79 260.5 139.5t335.5 155.5q18 -68 32.5 -158t32.5 -211.5
t39 -206.5t56 -163q84 -188 215 -311q120 -114 289 -197q123 -59 218 -125.5t95 -155.5q0 -43 -32 -88q77 -132 77 -186q0 -42 -36 -53q-119 -37 -375 -37q-393 0 -1153 94q-68 7 -240 31t-209 28q0 66 51 93q16 6 35 6q13 0 20 -0.5t16.5 -1.5t22.5 -2.5t23 -1.5
q37 0 68 16q34 17 50.5 50t16.5 48q-46 20 -71.5 46t-26.5 75zM1892 231q0 7 -6 24.5t-10 29.5q-135 -29 -315 -29q-47 0 -121 4q3 -15 13.5 -40.5t10.5 -26.5q16 -60 174 -60q35 0 54 2q200 0 200 96zM725 492q-19 -2 -48.5 -58.5t-35.5 -60.5q-26 -25 -82 -25
q-60 0 -102 17q0 -62 63 -97q35 -11 159 -35.5t228 -35.5q80 -11 148 -11q196 0 196 95q-39 8 -269 109.5t-257 101.5zM213 264q-33 1 -60 1.5t-59 0.5q-20 0 -26 -2q-34 -15 -39 -63q28 -2 116 -13t298.5 -39t335 -42.5t286.5 -30.5q316 -25 522 -25q223 0 389 37
q23 3 23 41q0 32 -20 84t-48 84q-20 -8 -39 -8q15 -34 15 -64q0 -37 -27 -61q-53 -43 -188 -43q-17 -2 -47 -2q-124 0 -168 28q-15 9 -25 24.5t-21 44.5t-20 44q-61 0 -119 8q-37 -76 -133 -100q-29 -8 -78 -8q-54 0 -174 16q-79 8 -139 19t-180 36q-67 14 -109.5 43.5
t-42.5 94.5q-70 9 -108 22q-12 -56 -43 -88.5t-72 -38.5zM1137 401q97 -33 206 -48t224 -15q216 0 389 43q2 6 2 20q0 51 -33 93.5t-87 77t-108 60t-122 56.5q-57 33 -91.5 55t-81.5 58t-84.5 72.5t-70.5 78.5q-64 77 -112 174.5t-81 204.5q-11 43 -25.5 132.5t-32.5 204
t-27 167t-15 61.5q-131 -50 -260 -114t-303 -158v-33q0 -95 -11.5 -203.5t-29.5 -175.5q-9 -38 -20.5 -58t-36.5 -59t-43.5 -82t-34.5 -110q-15 -90 -15 -131q0 -49 15 -67q22 -26 80 -40t144 -24t116 -16q73 -16 140 -43t161 -73t137.5 -66t110.5 -42z" />
    <glyph glyph-name="numbersign" unicode="#" horiz-adv-x="2116" 
d="M1812 1616l-12 -8q-48 72 -131.5 144.5t-181 128t-174.5 75.5v6q136 -35 284 -138t215 -208zM1817 436l-17 8q78 93 133.5 254.5t55.5 296.5v33h12v-33q0 -134 -55 -299.5t-129 -259.5zM705 72v8q126 -47 317 -47q182 0 287 47l4 -8q-108 -47 -291 -47q-194 0 -317 47z
M8 1016h12q0 -7 -0.5 -12t-1.5 -11q0 -87 26.5 -195.5t71 -203.5t97.5 -154l-8 -4q-81 87 -139 256t-58 301v23zM696 1962v-6q-81 -24 -179.5 -82.5t-182.5 -131.5t-125 -143l-8 5q41 71 127 147.5t187 134t181 76.5zM1812 1616q85 -114 138 -257t53 -282q0 -16 -0.5 -26.5
t-1.5 -22.5l-184 4l-150 471zM1817 436q-88 -128 -224.5 -227.5t-279.5 -136.5l-58 172l412 301zM705 72q-101 29 -195.5 81t-173 124t-131.5 159l143 109l408 -297zM8 1016q0 10 -0.5 16.5t-1.5 14.5q0 143 51.5 293.5t143.5 263.5l147 -111l-155 -473zM696 1964
q147 53 318 53q170 0 299 -53l-62 -172h-495zM1008 340l-9 4l-4 -4l4 264l9 -4h4zM752 236l4 12l-4 4l247 92l265 -96l-9 -4l5 -8l-261 92zM604 1556h12l5 9l139 -205l-4 4l-4 -12zM756 1792h16l-160 -236l-268 -75l4 12l256 80zM356 809v6l-4 8l256 80l-4 -10v-4zM176 1020
h17l163 -205l-8 -266l-16 -17l8 279zM1401 1583l4 -6l6 -4l-156 -217l-4 4h-8zM1675 1511l-10 -8l-260 74l-154 215l9 16l151 -221zM1657 819l-4 -8v-6l-252 88l8 4l-4 2zM1675 537l-8 12l-8 -4l-6 266l164 221l16 -4l-166 -219zM1251 1360l154 -463l-397 -297l-404 293
l152 467h495z" />
    <glyph glyph-name="dollar" unicode="$" horiz-adv-x="2140" 
d="M793 1305l-109 -17l-8 29l112 14q-17 76 -28 113l-109 -29l-8 29l105 33q-26 77 -39 106l-105 -35l-8 29l104 35q-76 182 -133 289q-118 -63 -216 -154.5t-167 -204t-108 -245t-39 -269.5q0 -265 143 -512q163 -243 387 -356q88 157 125 280l-96 35l8 29l105 -35
q8 22 17 44.5l13 32.5t9 29l-105 29l8 33l105 -33q7 28 17.5 62.5t14.5 54.5l-108 18l4 29l109 -20q3 15 7.5 36.5t6.5 36t4 39.5l-106 17v30l106 -10q8 55 8 111l-102 4l-8 28h110q1 15 1.5 27.5t0.5 30.5q0 24 -6 57l-106 -6l-4 31l106 8q-1 23 -18 117zM1028 12
q-273 0 -507.5 137.5t-371.5 371t-137 507.5q0 205 79 391.5t221.5 328t325 219t390.5 77.5t391.5 -78t324.5 -219.5t218.5 -326t77.5 -392.5q0 -273 -136 -507t-369 -371.5t-507 -137.5zM1028 41q128 0 240 31q85 23 188 75q-78 144 -133 281l-106 -37l-9 29l109 37
q-9 22 -15 38.5t-13 35.5t-13 36l-109 -26l-8 26l109 33q-5 17 -14 40t-15 38.5t-10 34.5l-109 -17l-4 29l113 18q-25 66 -29 117l-108 -8v33l108 8q-8 39 -8 115h-109l4 32h105q-2 13 -2 41q0 30 6 74l-104 12l4 33l104 -8q11 68 29 121l-113 18l8 29l105 -21q22 80 35 117
l-105 33l8 27l105 -31q9 27 41 110l-105 41l9 29l104 -41q9 24 31 72t32 71q32 83 72 150q-63 31 -133 54t-144.5 35.5t-150.5 12.5q-111 0 -222 -27t-210 -75q40 -67 72 -150q10 -23 34 -71t33 -72l101 41l8 -29l-101 -41q32 -83 41 -110l101 31l8 -27l-100 -33
q13 -38 30 -117l105 21l8 -29l-109 -18q15 -56 25 -121l104 8l5 -33l-105 -12q6 -43 6 -74q0 -28 -2 -41h105l4 -32h-109q0 -76 -8 -115l109 -8v-33l-109 8q-3 -42 -25 -117l109 -18l-4 -29l-109 17q-6 -31 -15.5 -56t-19.5 -57l105 -33l-8 -26l-105 26q-8 -21 -18.5 -51.5
t-22.5 -58.5l105 -37l-8 -29l-105 37q-62 -146 -135 -281q62 -31 99 -46t93 -29q106 -31 240 -31zM1264 1305q-18 -91 -21 -117l109 -8l-4 -31l-109 6q-8 -39 -8 -70q1 -10 1.5 -19t0.5 -26h110l-4 -28l-106 -4q0 -56 10 -111l109 10v-30l-109 -17q1 -16 3.5 -30.5t8 -38
t9.5 -43.5l104 20l4 -29l-104 -18q5 -27 12.5 -50.5t19.5 -66.5l101 33l8 -33l-100 -29q7 -25 39 -106l100 35l8 -29l-96 -35q40 -128 125 -280q120 60 217 151t170 205q143 247 143 512q0 142 -38.5 273.5t-106.5 242t-165.5 202.5t-219.5 155q-70 -133 -129 -289l100 -35
l-8 -29l-105 35q-11 -28 -14.5 -38.5t-9.5 -32.5t-10 -35l100 -33l-8 -29l-105 29q-11 -37 -28 -113l108 -14l-8 -29z" />
    <glyph glyph-name="percent" unicode="%" horiz-adv-x="2140" 
d="M1481 147q54 28 111 68.5t106 86.5t91.5 97.5t78.5 108.5q143 239 143 516q0 142 -38.5 273.5t-107.5 243.5t-166 204t-218 156q-126 -250 -188 -465t-62 -418q0 -139 28 -278.5t82.5 -283.5t139.5 -309zM1024 4q-274 0 -510 138t-373 373t-137 509t137 509t373 373
t510 138q273 0 507.5 -138t371.5 -373t137 -509t-137 -509t-371.5 -373t-507.5 -138zM563 147q82 157 139 305t85 287.5t28 278.5t-28 279t-85 292t-139 312q-117 -64 -214.5 -155.5t-167.5 -205.5t-109 -246.5t-39 -269.5q0 -141 37.5 -270.5t109.5 -245.5
q147 -233 383 -361zM1024 33q128 0 236 30q56 13 95 28t97 44q-130 252 -193 468.5t-63 420.5q0 98 16 207t49.5 223.5t77.5 220.5t113 242q-204 98 -428 98q-225 0 -432 -98q258 -498 258 -893q0 -394 -258 -889q96 -50 192 -72q114 -30 240 -30z" />
    <glyph glyph-name="asciicircum" unicode="^" horiz-adv-x="2032" 
d="M793 139l-25 -10l20 27q-75 31 -75 80q0 67 100.5 139.5t210.5 132.5l391 575l-10 41l115 93l-35 -146h-45l-391 -579q-10 -83 -23.5 -160t-48 -155.5t-86.5 -78.5q-33 0 -80 45l-18 -32v28zM1208 139l-24 -10l20 27q-76 32 -76 80q0 68 101 140t211 132l393 575l-12 41
l114 93l-34 -146h-46l-391 -579q-3 -51 -19.5 -143.5t-51.5 -171.5t-86 -79q-36 0 -78 45l-21 -32v28zM819 160q35 -41 66 -41q33 0 58.5 42t40.5 97.5t23.5 111.5t8.5 79zM1237 160q33 -41 63 -41q44 0 73.5 68t44 148t14.5 114zM801 172l194 293q-23 -11 -89.5 -52.5
t-118.5 -89t-52 -87.5q0 -42 66 -64zM1217 172l194 293q-23 -11 -89 -52t-117.5 -89.5t-51.5 -87.5q0 -43 64 -64zM129 293q-2 -2 -2 -8q0 -15 14 -15q10 0 23 11q63 44 147.5 77.5t185.5 75t185.5 101t157.5 157.5q-6 12 -6 25q0 28 22 60t55 71q16 41 27.5 69t25 47
t31.5 19q6 0 9.5 -0.5t7.5 -1.5q133 239 133 557q0 39 -2 108t-2 99q0 32 -11.5 49.5t-23.5 17.5q-6 0 -10 -4zM68 219l1116 1757q36 56 116 64q-29 -11 -51 -29.5t-37 -40.5t-21 -35t-13 -30q-13 -33 -13 -82q0 -14 1.5 -46.5t3.5 -63t4 -77.5t2 -75q0 -73 -5.5 -134.5
t-20.5 -137.5t-44.5 -159.5t-69.5 -160.5q21 -11 21 -31q0 -16 -10.5 -36t-28 -43.5t-35.5 -47.5q-42 -139 -106 -139q-101 -112 -200.5 -174.5t-236.5 -117t-197.5 -82.5t-121.5 -89q-8 -7 -20.5 -18t-28.5 -33t-29.5 -58.5t-22.5 -91.5q-6 0 -6 39q0 90 54 172z" />
    <glyph glyph-name="ampersand" unicode="&#x26;" horiz-adv-x="2132" 
d="M1016 2036q206 0 392.5 -79t327 -221t218.5 -326t78 -394q0 -204 -78 -386.5t-219 -323.5t-327.5 -219.5t-391.5 -78.5q-273 0 -506 137t-369.5 368t-136.5 503q0 275 136.5 510t370 372.5t505.5 137.5zM1016 1985q-259 0 -480.5 -130t-351 -353.5t-129.5 -485.5
q0 -259 129.5 -480.5t351 -351t480.5 -129.5q260 0 483.5 129.5t354.5 350.5t131 481q0 263 -131 486t-354.5 353t-483.5 130zM915 805l46 135l-113 84h139l41 125l39 -125h145l-112 -84l41 -131l-113 80zM352 805l43 135l-110 84h139l41 125l39 -125h139l-106 -84l38 -131
l-110 80zM1468 805l43 135l-106 84h135l39 125l45 -125h139l-110 -84l39 -131l-113 80z" />
    <glyph glyph-name="asterisk" unicode="*" horiz-adv-x="2081" 
d="M991 1976q-187 0 -357.5 -73.5t-300.5 -206.5t-202 -306.5t-72 -369.5q0 -197 72 -371t202.5 -307t300.5 -206t357 -73q190 0 362.5 73.5t303 205t203.5 306.5t73 372q0 196 -73 370.5t-203.5 306.5t-303 205.5t-362.5 73.5zM995 2036q202 0 383 -78t317.5 -218
t213 -325.5t76.5 -390.5q0 -275 -133.5 -508.5t-361 -370.5t-495.5 -137q-267 0 -495.5 137t-362 370.5t-133.5 508.5q0 205 76.5 390.5t214.5 326t318 218t382 77.5zM356 1503q19 0 31 -11t12 -28q0 -16 -12.5 -28.5t-30.5 -12.5q-12 0 -24.5 13.5t-12.5 27.5q0 15 12 27
t25 12zM713 1821q19 0 31 -13t12 -28q0 -16 -12.5 -29.5t-30.5 -13.5q-12 0 -22.5 13.5t-10.5 29.5q0 15 10 28t23 13zM1243 336q19 0 30 -13t11 -30q0 -14 -11.5 -27.5t-29.5 -13.5q-13 0 -24 13.5t-11 27.5q0 17 10.5 30t24.5 13zM1067 1583q19 0 30 -12.5t11 -30.5
q0 -13 -11.5 -27t-29.5 -14q-10 0 -20.5 14.5t-10.5 26.5q0 18 9.5 30.5t21.5 12.5zM672 1495q14 0 25.5 -10t11.5 -25t-12.5 -30t-24.5 -15q-15 0 -27 15t-12 30t11 25t28 10zM436 1128q18 0 30.5 -10.5t12.5 -30.5q0 -17 -13 -30t-30 -13q-11 0 -24 14t-13 29
q0 18 12.5 29.5t24.5 11.5zM1419 1675q21 0 33 -10.5t12 -28.5q0 -15 -13 -30t-32 -15q-11 0 -23 15t-12 30q0 17 11 28t24 11zM1632 1473q19 0 31 -11t12 -30q0 -17 -13 -30t-30 -13q-11 0 -24 14t-13 29q0 17 12 29t25 12zM1708 1137q19 0 31 -11t12 -30q0 -17 -13 -30
t-30 -13q-11 0 -24 14t-13 29q0 17 12 29t25 12zM219 836q19 0 32 -11t13 -28t-13 -31t-32 -14q-11 0 -23 14.5t-12 30.5t11.5 27.5t23.5 11.5zM844 289q19 0 32 -11.5t13 -29.5q0 -17 -14 -30t-31 -13q-12 0 -23.5 14.5t-11.5 28.5q0 16 10.5 28.5t24.5 12.5zM1096 1855
q18 0 31.5 -10t13.5 -28t-13.5 -31.5t-31.5 -13.5q-12 0 -23.5 15t-11.5 30q0 16 11 27t24 11zM479 541q19 0 32 -13t13 -28q0 -16 -13.5 -29.5t-31.5 -13.5q-13 0 -24 13.5t-11 29.5q0 15 10.5 28t24.5 13zM809 629q17 0 30 -13t13 -28q0 -13 -14 -26t-29 -13
q-10 0 -23.5 13.5t-13.5 25.5q0 14 12.5 27.5t24.5 13.5zM1356 633q18 0 29.5 -11t11.5 -30q0 -14 -12.5 -26.5t-28.5 -12.5q-14 0 -26.5 13.5t-12.5 25.5q0 17 11 29t28 12zM1616 809q18 0 31.5 -11t13.5 -30q0 -17 -14 -30t-31 -13q-13 0 -25 14t-12 29q0 18 11.5 29.5
t25.5 11.5zM1397 1237q17 0 28 -12t11 -29q0 -16 -11.5 -29.5t-27.5 -13.5q-15 0 -26 13.5t-11 29.5q0 17 10.5 29t26.5 12zM1036 1180l-164 -252h164v252zM1024 1243h59v-315h41v-47h-41v-80h-47v80h-227v47zM999 729q77 0 143.5 38t106 104.5t39.5 144.5q0 76 -40 143
t-107 106.5t-142 39.5q-77 0 -143 -39.5t-104.5 -106t-38.5 -143.5q0 -79 38.5 -144.5t104 -104t143.5 -38.5zM995 696q-132 0 -225.5 94.5t-93.5 225.5q0 85 43 159.5t116.5 118t159.5 43.5q88 -2 161.5 -45t117 -116.5t43.5 -159.5t-43.5 -159.5t-117.5 -117t-161 -43.5z
" />
    <glyph glyph-name="parenleft" unicode="(" horiz-adv-x="2132" 
d="M1024 2040q207 0 389 -77.5t322.5 -218.5t218.5 -325.5t78 -390.5q0 -273 -135.5 -507t-368.5 -371.5t-504 -137.5q-202 0 -385.5 79t-324 221.5t-217.5 326t-77 389.5t77.5 390t218 325t322 219t386.5 78zM1024 1397q-70 0 -119 -45t-49 -109q0 -60 49.5 -101.5
t118.5 -41.5t120.5 42t51.5 101q0 63 -51 108.5t-121 45.5zM680 1776q-69 0 -116.5 -44.5t-47.5 -107.5q0 -61 48 -104t116 -43q71 0 121.5 43.5t50.5 103.5q0 42 -23 76.5t-61 55t-88 20.5zM1313 1776q-71 0 -121.5 -44.5t-50.5 -107.5q0 -60 50.5 -103.5t121.5 -43.5
q68 0 118 43.5t50 103.5q0 62 -50 107t-118 45z" />
    <glyph glyph-name="parenright" unicode=")" horiz-adv-x="2128" 
d="M1376 4q-6 99 -65.5 314.5t-79 293.5t-19.5 203q0 204 103 373q80 129 80 254q0 43 -6.5 80t-16.5 77.5t-20.5 92.5t-10.5 86q0 98 60 198q22 34 62 51t81 17q43 0 83 -17.5t61 -50.5q59 -96 59 -196q0 -43 -7.5 -81t-21.5 -89t-21 -90.5t-7 -77.5q0 -39 8 -78.5
t25 -82.5t49 -93q106 -172 106 -377q0 -96 -20.5 -199t-56.5 -227.5t-57 -210t-28 -170.5h-340zM567 907q-21 0 -34 -14.5t-13 -36.5q0 -24 13.5 -39.5t33.5 -15.5q27 0 44.5 15t17.5 40q0 22 -16.5 36.5t-45.5 14.5zM453 801q-26 0 -42 -16t-16 -42q0 -21 16.5 -36
t41.5 -15q21 0 36 15t15 36q0 25 -15 41.5t-36 16.5zM408 948q-20 0 -36 -16t-16 -39t16 -38t36 -15q24 0 40.5 15t16.5 38q0 24 -16.5 39.5t-40.5 15.5zM504 139q-135 0 -250 67t-182.5 182t-67.5 249q0 136 67 252.5t182.5 184t250.5 67.5q138 0 255.5 -68t185 -184
t67.5 -252q0 -134 -67.5 -248.5t-185 -182t-255.5 -67.5z" />
    <glyph glyph-name="underscore" unicode="_" horiz-adv-x="1745" 
d="M616 999h-397l-168 -34l-31 39l539 -869q8 18 26 29.5t31 11.5v823zM688 999h-51v-819q26 -4 51 -20v839zM1073 1028v27q0 30 2 86t2 82q0 76 -13.5 122t-49.5 70q-48 38 -68 117.5t-35 153t-58 138t-140 103.5l-8 -6v-893h368zM668 29q-20 -11 -33 -11q-33 0 -57.5 26.5
t-24.5 72.5l-553 899l559 911q-4 16 -4 29q0 34 21 57t61 23q34 -3 55.5 -23.5t24.5 -52.5q82 -22 135.5 -88.5t91 -154t77 -175.5t79.5 -115q26 -17 38.5 -57.5t17 -82.5t9.5 -146.5t6 -112.5h248l13 47l233 -55l-229 -51l-17 30h-245q24 -1 35.5 -34.5t11.5 -83.5
q0 -51 -12.5 -93.5t-34.5 -52.5q-5 -50 -22.5 -94.5t-38.5 -69.5t-40 -30q-43 -9 -73.5 -78.5t-61 -145t-93 -153.5t-177.5 -135zM1081 999h-376v-860q10 -12 10 -41q0 -15 -6 -30q94 56 140 125t63 138.5t35.5 137t58.5 98.5q63 48 63 269v32q-21 2 -36 22.5t-15 43.5
q0 54 63 65zM688 1028v868q-20 -24 -51 -24v-844h51zM616 1028v848q-39 8 -53 37l-547 -893l35 47l168 -39h397z" />
    <glyph glyph-name="plus" unicode="+" horiz-adv-x="2040" 
d="M977 2036q199 0 374.5 -78.5t309 -218.5t208.5 -326t75 -393q0 -273 -130 -507.5t-352.5 -371.5t-484.5 -137q-264 0 -487 137t-352.5 371.5t-129.5 507.5q0 207 74.5 391.5t209.5 327t310 220t375 77.5zM977 1481q-122 0 -228 -61.5t-167.5 -167.5t-61.5 -228
q0 -124 61.5 -232t167 -170.5t228.5 -62.5t229.5 62.5t168 170t61.5 232.5q0 123 -62 228.5t-168.5 167t-228.5 61.5zM889 987q-31 -37 -31 -76q0 -37 31 -75q21 -35 76 -35q51 0 92 35q20 40 20 77q0 55 -45 86q-23 25 -67 25q-48 0 -76 -37zM889 1167q0 -37 23 -62.5
t57 -25.5q37 0 63 25q23 18 23 51t-24 59.5t-62 26.5q-80 -3 -80 -74zM969 752q-82 10 -123 53t-41 102q0 46 24 87.5t60 58.5q-25 12 -39 42t-14 62q0 53 33.5 93.5t99.5 41.5q40 0 71 -21.5t47.5 -54t16.5 -67.5q0 -70 -55 -96q86 -49 86 -138q0 -64 -48 -113t-118 -50z
" />
    <glyph glyph-name="Q" unicode="Q" horiz-adv-x="1751" 
d="M1040 211l-919 1614q-3 2 -26 6.5t-27 11.5l-48 74q-4 4 -4 14q0 31 42.5 66t80.5 35q23 0 33 -17l51 -80q4 -4 4 -12q0 -6 -4.5 -18t-7.5 -21l860 -1476q105 -154 221 -154q36 0 60 14q67 33 90 63t43.5 70t42.5 48q13 8 33 8q29 0 48.5 -33t26.5 -76q1 -10 1.5 -19
t0.5 -22q0 -121 -66.5 -185.5t-174.5 -98.5q-27 -9 -62 -9q-59 0 -121 29.5t-108.5 74t-69.5 93.5zM1251 41q51 -21 92 -21q8 0 46 9l-54 227q-13 -8 -35 -8q-12 0 -40 4zM1401 35q64 21 90 33.5t53 40.5l-133 184q-29 -22 -63 -37zM1552 115q28 16 60 78l-144 155
q-18 -31 -49 -51z" />
    <glyph glyph-name="W" unicode="W" horiz-adv-x="2241" 
d="M248 152q-22 0 -38.5 -15.5t-16.5 -40.5q0 -20 16.5 -36.5t38.5 -16.5t36.5 16.5t14.5 36.5q0 25 -14.5 40.5t-36.5 15.5zM248 131q28 0 28 -35q0 -12 -8 -22.5t-20 -10.5q-16 0 -24.5 10t-8.5 23q0 35 33 35zM387 168l-88 -105q-5 -7 -20 -18.5t-35 -11.5q-21 0 -39 10
q-7 6 -17 21.5t-10 33.5q0 25 19 45l26 25h164zM1499 152q-18 0 -32.5 -15.5t-14.5 -40.5q0 -20 14.5 -36.5t32.5 -16.5q28 0 42.5 15.5t14.5 37.5q0 26 -14.5 41t-42.5 15zM1499 131q37 0 37 -35q0 -12 -9.5 -22.5t-27.5 -10.5q-10 0 -18 10.5t-8 22.5q0 35 26 35z
M1645 168l-84 -105q-6 -7 -21.5 -18.5t-36.5 -11.5q-20 0 -39 10q-6 6 -16 21.5t-10 33.5q0 21 18 45l25 25h164zM1980 444q58 -27 58 -73q0 -44 -47 -89t-127.5 -75.5t-180.5 -30.5h-1675v29l185 215h1587q35 0 91 14.5t81 14.5q18 0 28 -5zM43 219h1569q93 3 184 32
t146 69.5t55 70.5q0 32 -53 41q-11 0 -62 -12t-106 -12h-1571zM121 252l110 129h1360q135 0 135 -43q0 -21 -27.5 -40.5t-73.5 -32.5t-105 -13h-27h-1372z" />
    <glyph glyph-name="E" unicode="E" horiz-adv-x="440" 
d="M88 1980q-8 0 -16.5 7.5t-8.5 13.5v14q0 11 8 18t17 7h76q9 0 16.5 -7.5t7.5 -17.5v-14q0 -5 -8 -13t-16 -8h-76zM160 1976v-159q0 -13 -13 -13h-47q-12 0 -12 13v159h72zM188 1864l-16 12q0 -114 42 -172.5t91 -58.5q27 0 43 16q23 14 23 61q0 31 -18.5 72t-62.5 85.5
t-122 92.5l20 -24q162 -115 162 -226q0 -19 -10 -47q-7 -12 -31 -12q-25 0 -53.5 25t-48 70.5t-19.5 105.5zM147 188q76 -6 113 -63q-60 -16 -113 -16l-22 -101l-25 101q-60 4 -100 16q37 52 100 63v1608h47v-1608z" />
    <glyph glyph-name="R" unicode="R" horiz-adv-x="1972" 
d="M1612 823q59 0 107 -26.5t75 -71t27 -92.5q0 -89 -59 -149t-150 -60q-55 0 -100.5 28t-73 75.5t-27.5 105.5q0 48 27.5 92t73.5 71t100 27zM1444 549l264 231q-12 14 -41.5 22.5t-54.5 8.5q-50 0 -93 -26t-69.5 -70t-26.5 -90q0 -44 21 -76zM1520 469q14 -17 37 -22
t67 -11q75 0 129.5 55.5t54.5 133.5q0 54 -32 100zM1880 856h-51v492q0 49 -34.5 87t-82.5 38h-192q-47 0 -82 -38t-35 -87v-492h-51v512q0 60 40 102.5t103 42.5h246q57 0 96 -44t39 -101zM991 487l-88 -47l-878 1524q-7 8 -7 23q0 30 23 45q9 6 22 6q33 0 46 -27z
M1057 180l-142 244l84 47l142 -248zM1155 236l-139 243l100 70l148 -252zM1040 172l-104 -68l-143 256l106 56zM1339 303q-12 -6 -24 -6q-23 0 -39 22l-131 230q-6 9 -6 18q0 24 20 41l41 21q6 6 19 6q24 0 36 -23l131 -231q7 -8 7 -21q0 -22 -21 -36zM893 43l-33 -18
q-6 -5 -20 -5q-27 0 -39 21l-129 227q-8 11 -8 29q0 26 24 35l33 20q8 4 20 4q28 0 39 -20l127 -232q8 -16 8 -22q0 -23 -22 -39z" />
    <glyph glyph-name="T" unicode="T" horiz-adv-x="2200" 
d="M1507 1573q-28 11 -45.5 14.5t-42 5t-47.5 2.5q-20 -44 -31.5 -80t-20.5 -73.5t-20 -85.5zM1640 1700q-72 56 -192 63q-20 -27 -59 -118q86 0 155 -41zM1800 1864l76 80q-50 45 -119 45q-56 0 -121 -33q86 -30 164 -92zM1763 1825q-25 27 -80.5 55.5t-103.5 40.5
q-20 -13 -35.5 -28t-26.5 -28.5t-19 -24.5t-21 -28q54 -6 108 -26t90 -49zM41 8l-37 35l1247 1266q29 193 85.5 332t127.5 225t148.5 126t150.5 40q105 0 176 -68q68 -71 68 -176q0 -101 -72.5 -205t-233.5 -189t-413 -126zM1548 1532l-209 -215q66 10 116.5 26t123.5 50
q-2 52 -5.5 74t-25.5 65zM1679 1665l-92 -96q37 -68 37 -158q73 28 121 57q-6 114 -66 197zM1843 1825q39 -51 59 -87t29 -77q33 54 33 119q0 72 -47 125zM1804 1788l-84 -88q62 -87 68 -201q55 41 72 55.5t36 44.5q-12 53 -39 108t-53 81z" />
    <glyph glyph-name="Y" unicode="Y" 
d="M51 1368v-176h545v96h1372l-20 80h-1897zM51 911h545v201h-545v-201zM51 336h545v209h-545v-209zM51 629h545v207h-545v-207zM51 51h545v205h-545v-205zM1989 1415l47 -170h-1393v-1237h-635v1407h125v238q0 37 17 67t47 47t67 17h740q53 0 93 -44t40 -89v-236h852z
M1087 1415v215q0 44 -34 75.5t-84 31.5h-670q-49 0 -84 -36t-35 -69v-217h907z" />
    <glyph glyph-name="U" unicode="U" 
d="M1380 1264v-332q28 0 42 -8t14 -31q-3 -23 -11.5 -28t-31.5 -5l-70 -352q147 61 247.5 114.5t168 124t78.5 160.5v410q0 93 -83 158t-209 104t-263 56.5t-242 17.5q-98 0 -228 -16t-261.5 -55t-219.5 -105.5t-88 -159.5v-410q11 -69 54.5 -126t112 -104.5t145.5 -84.5
t192 -84l-72 352q-26 0 -35 5t-12 28q0 24 15 31.5t45 7.5v332h712zM1020 1724q111 0 258.5 -19.5t290.5 -63t239.5 -117.5t96.5 -176v-459q-7 -90 -68.5 -163.5t-149.5 -127t-192 -98t-190 -80.5l-21 -101q8 4 160 65.5t271.5 124.5t203.5 143t84 171v490
q0 123 -110.5 216.5t-272 151t-327 86.5t-269.5 29q-158 0 -390.5 -53t-408.5 -162.5t-176 -267.5v-490q8 -88 93.5 -169t201.5 -144t226.5 -109.5t193.5 -81.5l-21 101q-100 42 -196 83t-187 96t-153 127.5t-72 162.5v459q0 103 95 176.5t235 115.5t293 62t262 22z
M1317 932v356h-586v-356h586zM1221 12h-390l-55 273q-78 32 -218.5 90t-265.5 128t-204.5 151.5t-79.5 172.5v490q0 167 181 281t422 168.5t413 54.5q119 0 289.5 -30t335.5 -91t276 -157.5t111 -225.5v-490q0 -91 -78.5 -172.5t-202.5 -151t-269.5 -130t-213.5 -88.5z
M764 856h-62l29 -121h53zM1284 856l-24 -121h61l22 121h-59zM793 684h-50l21 -113h47zM1251 684l-22 -113h59l25 113h-62zM819 524h-43l25 -112h43zM1221 524l-21 -112h55l25 112h-59zM856 365h-51l31 -142h49zM1188 365l-29 -142h58l26 142h-55zM897 176h-53l24 -125h56z
M1153 176l-25 -125h56l24 125h-55zM827 856l17 -121h104l-8 121h-113zM1233 856h-125l-8 -121h108zM852 684l16 -113h93l-9 113h-100zM1200 684h-104l-9 -113h97zM877 524l20 -112h76l-8 112h-88zM1171 524h-88l-8 -112h78zM977 365h-74l29 -142h55zM1071 365l-6 -142h55
l25 142h-74zM991 176h-51l21 -125h43zM1061 176l-8 -125h39l20 125h-51zM987 856l12 -121h58l8 121h-78zM1049 684h-45l8 -113h28zM1036 524h-20l8 -112zM1012 801l-68 8l33 -406z" />
    <glyph glyph-name="I" unicode="I" 
d="M1149 1335q19 10 37 49.5t18 77.5q0 28 -12 49q-24 39 -28.5 77t-9 77.5t-26.5 71.5h-96q-4 -55 -30 -88.5t-51.5 -65t-26.5 -80.5q0 -48 42.5 -83.5t92.5 -35.5q18 0 28 5q-30 12 -70 48.5t-40 73.5q2 35 27 70.5t47.5 67t23.5 71.5q26 -51 30 -89.5t8 -69.5t32 -72
q16 -20 16 -86q0 -36 -12 -68zM369 1745h1306q86 -118 154 -316.5t114.5 -436.5t69.5 -456t23 -389q-39 -54 -169.5 -81t-287.5 -27q-66 0 -131.5 5.5t-103.5 14.5t-44 21q-17 18 -40.5 97t-58.5 198t-78 197t-99 96q-58 -18 -100.5 -94.5t-63 -142.5t-57.5 -198.5
t-55 -152.5q-6 -13 -44 -21.5t-104.5 -14t-132.5 -5.5q-159 0 -290.5 27t-168.5 81q0 161 24 389.5t70.5 462t114.5 431.5t152 315z" />
    <glyph glyph-name="O" unicode="O" horiz-adv-x="2148" 
d="M76 80q-43 43 -43 84q0 40 40 87t128 122l1671 1558q-29 32 -29 41q0 10 17 29q16 16 28 16q8 0 14.5 -4.5t11.5 -10t13 -13.5l29 -29l29 -29q12 -10 22 -20t10 -19q0 -5 -20 -28q-19 -17 -29 -17q-7 0 -41 29l-1558 -1671q-78 -90 -123 -129t-86 -39q-42 0 -84 43z" />
    <glyph glyph-name="P" unicode="P" horiz-adv-x="1409" 
d="M705 147l-265 840l-32 25l-291 944l-45 -12l293 -945l-13 -38l289 -924h313l-39 110h-210zM1307 37l-43 110h-181l45 -110h179zM719 172h557l67 -164h-725l-299 965l17 39l-289 923l-14 -4l-21 62l127 39l21 -60l-21 -8l289 -924l33 -28z" />
    <glyph glyph-name="braceleft" unicode="{" horiz-adv-x="1780" 
d="M705 592q63 14 90 14q77 0 112 -61q35 1 64 1.5t78 0.5q202 0 349.5 -45t223.5 -174q16 -47 16 -109q0 -68 -14 -110l25 -5l-13 -57l-12 4l-16 -43l-25 4l2 47h-16l8 54l18 -4q15 96 15 124q0 50 -17 95q-75 103 -202 142.5t-291 39.5q-94 0 -180 -6l-5 -55
q-6 -40 -23.5 -54t-80.5 -35q16 -12 16 -55q0 -70 -71 -100q-37 -16 -90.5 -27.5t-114.5 -16.5t-115 -5q-162 0 -281 36.5t-130 106.5q-7 32 -7 63q0 97 58 179t152 130t198 48q169 0 279 -127z" />
    <glyph glyph-name="braceright" unicode="}" horiz-adv-x="0" 
 />
    <glyph glyph-name="bar" unicode="|" horiz-adv-x="0" 
 />
    <glyph glyph-name="A" unicode="A" horiz-adv-x="2005" 
d="M369 756q20 0 36.5 19t16.5 44q0 30 -16 50t-37 20q-22 0 -37 -20t-15 -50q0 -25 15.5 -44t36.5 -19zM1083 889q34 -21 85.5 -36.5t147 -40t124.5 -36.5q9 1 16.5 1.5t18.5 0.5q58 0 106 -17t82.5 -46t55 -67t20.5 -77q0 -60 -56 -110l29 -96h23q80 0 123 -47t43 -121
v-25q-6 -40 -32.5 -73t-68 -51.5t-80.5 -18.5q-56 0 -100.5 35t-63.5 108h-83q-9 -67 -57.5 -105t-110.5 -38q-61 0 -109.5 36.5t-62.5 106.5h-105q-17 -70 -65 -107.5t-109 -37.5q-65 0 -114.5 39.5t-59.5 105.5h-96q-6 -59 -59 -101t-117 -42q-55 0 -101.5 35t-70.5 108
h-21l-22 -76q-8 -16 -37 -16q-40 0 -83.5 23t-43.5 49q0 4 4 12l59 125q-12 12 -12 35q0 32 22 69t41 51q20 13 62 13h41q18 0 22 4q8 8 8 16q0 3 -8 43q-24 77 -24 195q0 66 6 132.5t18 164t18.5 180t6.5 158.5q0 112 -17 194q-2 8 -2 21q0 8 4.5 12t17 8t26.5 10
q0 13 -1 43t-2 56q0 94 21 153.5t84 59.5q18 0 45 -6q49 -13 90.5 -61.5t81.5 -115.5q23 146 43 193q26 60 73 89.5t101 29.5q43 0 82 -19.5t62.5 -55t23.5 -81.5q0 -34 -10 -59q-20 -70 -57.5 -186.5t-55.5 -182.5t-35 -164q5 1 9 1.5t10 0.5q56 0 119.5 -61.5t113.5 -145
t60 -131.5q2 -6 2 -16q0 -22 -12.5 -33.5t-28.5 -11.5q-23 0 -41 12q-32 19 -64.5 74t-65.5 113.5t-50 62.5q-7 0 -7 -6q0 -30 69.5 -134.5t100.5 -123.5zM215 231q0 20 -30.5 36t-61.5 16q-21 0 -27 -11l-49 -104q-2 -4 -2 -10q0 -23 36 -44.5t69 -21.5q25 0 30 17z
M356 1780q0 64 43 92q15 8 33 8q41 0 92 -45t113 -143l4 20q-94 140 -154 168q-28 14 -57 14q-42 0 -65 -34q-29 -41 -29 -164q1 -27 1.5 -49.5t0.5 -51.5q38 -75 49.5 -131.5t14.5 -101.5t12 -57.5t45 -12.5q39 0 149 17q0 70 17 155q-28 28 -106 81t-118.5 103t-44.5 132z
M877 844q20 49 30 49q6 -6 6 -27q0 -13 -0.5 -22t-1.5 -21q0 -39 33 -39q9 1 17.5 10.5t18 25.5t15.5 24q6 6 13 6q22 0 28 -23q0 -16 -5 -37.5t-5 -23.5q0 -15 14 -18q22 0 38 30.5t22 32.5q33 0 33 -10q1 -6 1.5 -10.5t0.5 -12.5q0 -12 -0.5 -19t-1.5 -16q0 -23 22 -30
q19 0 32 23t25 44q4 8 15 8q13 0 27 -10.5t14 -21.5q-4 -34 -4 -37q0 -31 24 -31q19 0 37 35.5t18 60.5q0 5 -4 9q-78 15 -153 38.5t-107 40.5q-39 18 -107.5 124.5t-68.5 152.5q9 18 21 18q18 0 39 -32.5t59.5 -100t62.5 -98.5t48 -31q3 1 5.5 1.5t6.5 0.5q18 9 18 33
q0 45 -56 132t-95 124q-3 3 -19 17t-33 24.5t-40.5 18.5t-55.5 8q-15 18 -61 18q-47 0 -104.5 -21.5t-73.5 -43.5q-2 -3 -2 -9q0 1 5 -13t5 -24q-35 -49 -92.5 -245.5t-57.5 -272.5q0 -28 9 -28q18 0 58 164.5t73 264.5t82 126q2 2 8 2q22 0 22 -11q0 -26 -7 -51
t-18.5 -54.5t-29.5 -70.5t-21 -47q-22 -57 -22 -123q0 -104 80 -104q6 0 26 4q31 5 78 44t56 75zM856 856q-5 -34 -48.5 -72.5t-84.5 -38.5q-25 0 -47 19q-23 22 -23 65q0 40 17 87.5t35 70.5q8 14 14 14q3 0 11 -10t18 -10q7 3 12.5 11.5t9 12t18.5 7.5q26 0 47.5 -10
t24.5 -21q1 -2 1.5 -4t0.5 -6q0 -14 -9 -21t-35.5 -22.5t-26.5 -24.5q0 -4 6 -10q13 -16 28 -16q5 0 16.5 5t14.5 5q2 0 2 -6q0 -13 -2 -25zM412 51q54 0 95 35t48 86h-287q11 -51 50.5 -86t93.5 -35zM852 51q54 0 94 35t49 86h-286q9 -51 49 -86t94 -35zM1305 51
q53 0 93.5 35t49.5 86h-289q9 -50 50.5 -85.5t95.5 -35.5zM1729 51q59 0 103 44t44 106q0 63 -39.5 101t-116.5 38q15 -39 27 -73.5t12 -53.5q0 -41 -71 -41h-105q9 -50 50.5 -85.5t95.5 -35.5zM688 479l33 -39h571l35 39h-639z" />
    <glyph glyph-name="S" unicode="S" horiz-adv-x="2308" 
d="M580 1948q48 6 94 6q124 0 233 -48.5t192.5 -147.5t130 -246t46.5 -338q0 -119 -20 -258t-64 -295q-14 -64 -62 -64q-44 0 -90.5 51t-46.5 94q0 50 72 50q43 206 43 372q0 155 -34 275.5t-95.5 202t-142 121.5t-172.5 40q-18 0 -56 -4q-97 -14 -176 -74.5t-123.5 -163
t-44.5 -235.5q0 -271 180 -610q28 12 45 12q39 0 39 -45q0 -31 -18.5 -71t-46.5 -68.5t-53 -28.5q-28 0 -45 29q-101 164 -163.5 307t-93 274t-30.5 246q0 174 64.5 306.5t178 210.5t259.5 100zM2036 1864l-39 -127l-41 12l-453 -1456l-160 -285l33 324l449 1456l-41 12
l37 131z" />
    <glyph glyph-name="D" unicode="D" 
d="M1872 1485l-1477 -1182q-37 -33 -96 -55.5t-129 -22.5q-88 0 -170 43q54 9 91.5 23t67.5 32.5t63.5 45t70.5 55.5l1448 1124zM1847 1481l-106 51l-1489 -1155q-15 -12 -40 -31.5t-49 -35t-57.5 -29t-62.5 -17.5q51 -26 119 -26q63 0 119.5 17.5t78.5 41.5zM868 848l60 51
l28 -14l21 12l43 -25l-16 -12l32 -20l-59 -47zM1071 1008l70 53l98 -57l-63 -52l-23 17l14 12l-55 27l-16 -17zM2036 1411l-1368 -1298q-37 -42 -102 -70.5t-140 -28.5q-74 0 -145 29q63 15 108.5 41.5t82 61.5t81.5 77l1343 1241zM2011 1409l-110 43l-1385 -1280
q-4 -3 -43 -39t-75.5 -58t-78.5 -32q36 -16 93 -16q63 0 130 24.5t91 48.5zM1087 696l62 52l27 -13l16 17l47 -21l-14 -14l35 -17l-56 -53zM1280 872l63 56l105 -47l-59 -58l-25 13l12 16l-55 20l-16 -12z" />
    <glyph glyph-name="F" unicode="F" 
d="M20 12q0 45 25 142.5t98 214t216.5 202.5t357.5 93q6 1 10.5 1.5t11.5 0.5q126 0 263.5 -62t246.5 -183.5t152 -289.5q108 -1 232.5 -23t215 -50.5t90.5 -39.5q0 -6 -22 -6h-1897zM713 725q27 0 47 -11.5t20 -29.5q0 -12 -32 -12h-31h-29q-33 0 -33 12q0 19 17.5 30
t40.5 11zM694 651q-46 -6 -139.5 -47.5t-186 -167.5t-92.5 -354v-23h254v33q0 55 11.5 139.5t48 195.5t104.5 224zM735 655q82 -80 130 -173t65.5 -176t17.5 -150q0 -37 -3 -62.5t-5 -34.5h260q0 182 -65.5 303t-152 182t-152.5 84t-95 27z" />
    <glyph glyph-name="G" unicode="G" horiz-adv-x="2497" 
d="M1100 524q40 0 68 29t28 68t-27.5 65.5t-68.5 26.5q-35 0 -63.5 -26.5t-28.5 -65.5t29 -68t63 -29zM143 125q-34 0 -34 41q0 26 20 35l584 180l-584 -21q-35 0 -35 37q0 15 9.5 27t25.5 12l580 21q6 76 6 155q0 82 -8 148t-26.5 120.5t-47.5 88.5q-24 44 -106.5 73.5
t-167.5 43.5t-203 29.5t-140 21.5q36 207 132 367t235 265.5t305.5 159t341.5 53.5q102 0 207 -18q161 -29 304.5 -103.5t252.5 -194t171.5 -281.5t62.5 -363q0 -178 -56 -385q-18 -69 -108 -171t-219 -196t-271 -153.5t-272 -59.5q-82 0 -158 31q-69 30 -104 49.5t-70.5 61
t-42.5 100.5z" />
    <glyph glyph-name="H" unicode="H" horiz-adv-x="1792" 
d="M643 643q0 -43 23.5 -89t71 -78t114.5 -32l-135 -188h135l152 213q69 93 69 182q0 61 -31.5 109.5t-81 76t-100.5 27.5q-98 0 -154.5 -60.5t-62.5 -160.5zM760 643q3 53 32 80t70 27q36 0 63 -24t27 -67q0 -54 -26 -80t-66 -26q-38 0 -69 25.5t-31 64.5zM424 12
q3 58 6.5 146t9.5 219.5t9.5 184t15.5 218.5l-264 -456q-5 -17 -35 -17q-40 0 -96 31.5t-56 56.5q0 6 2 8q12 27 93.5 224t123 291t82 168.5t70.5 97.5q66 63 141 63q47 0 133 -22q13 -91 65.5 -136t119.5 -45q70 0 124 45.5t64 135.5q86 22 131 22q43 0 73.5 -15t63.5 -48
q31 -22 76.5 -105t91 -187t104 -243t103.5 -246q2 -2 2 -8q0 -26 -56.5 -57t-98.5 -31q-28 0 -33 17l-309 407l-4 4q-2 0 -2 -12q0 -27 11 -99.5t30.5 -199.5t33.5 -235t15 -177h-840z" />
    <glyph glyph-name="J" unicode="J" horiz-adv-x="1884" 
d="M223 584q-56 117 -86.5 187t-55 143.5t-36.5 136.5t-12 135q0 117 38.5 250.5t121.5 318.5q32 73 85.5 125.5t125.5 86.5t150 48.5t167 14.5q96 0 194 -17t181 -45q77 -35 114.5 -53.5t87.5 -56.5t85.5 -97.5t35.5 -136.5q0 -146 -139 -336q123 137 223 137
q73 0 112.5 -66t39.5 -165q0 -122 -60 -217q-39 -63 -113.5 -189.5t-125.5 -197.5t-128 -141t-184 -130l-88 -155q0 -4 -18 -4q-58 0 -225.5 41t-313.5 96t-176 102q-8 44 -8 95t8 90zM311 41q49 20 74.5 63.5t49.5 83t81 60.5q62 -9 62 -96q0 -12 -1 -31.5t-2 -36.5
q0 -38 9 -76q-54 44 -54 92q0 9 2.5 24.5t2.5 29.5q0 22 -11 43q-27 -9 -40.5 -33.5t-28.5 -52.5t-46.5 -46t-97.5 -24zM336 668v-35l612 -180l15 34zM336 604v-37l579 -176l17 37zM336 532v-36l541 -177l18 37zM336 465v-41l504 -168l22 37z" />
    <glyph glyph-name="K" unicode="K" 
d="M403 1153h35q161 0 223.5 -105t75 -263t29.5 -336.5t86 -243.5q69 -67 150 -100t165 -33q103 0 192.5 48.5t143 137t53.5 203.5q0 58 -16 127q-15 60 -45 95.5t-108.5 117t-113 149.5t-34.5 162q5 76 55 145.5t141 113.5t210 44v25h391v-101h-391v43q-13 2 -35 2
q-92 0 -169.5 -41.5t-121 -106t-43.5 -128.5q0 -118 35.5 -168t137 -156t128.5 -200q18 -73 18 -138q0 -125 -60 -217.5t-160.5 -142t-211.5 -49.5q-209 0 -352 156q-65 74 -82 243t-30 328.5t-75.5 257.5t-224.5 98l4 -41h-391v97h391v-23z" />
    <glyph glyph-name="L" unicode="L" 
d="M655 356q-13 -100 -57 -179.5t-111.5 -124t-146.5 -44.5q-87 0 -164.5 57t-122.5 156t-45 215q0 113 45 209.5t122.5 153.5t164.5 57q68 0 130.5 -35t109.5 -95.5t71 -141.5h746q36 121 122 196.5t189 75.5q66 0 125.5 -31.5t106 -91t71.5 -135t25 -162.5
q0 -89 -25 -166.5t-71 -137t-106 -92t-126 -32.5q-79 0 -146.5 44.5t-111.5 124t-57 179.5h-738z" />
    <glyph glyph-name="colon" unicode=":" horiz-adv-x="559" 
d="M276 1855q-67 0 -137.5 19.5t-70.5 48.5q0 39 68.5 60.5t139.5 21.5q69 0 136 -21.5t67 -60.5q0 -29 -68 -48.5t-135 -19.5zM272 4q-5 24 -23 95t-26 111t-10 79l-82 1423q-1 31 -17.5 53t-46.5 51t-44.5 54t-14.5 65q0 54 91 77.5t177 23.5q80 0 170.5 -25.5t90.5 -75.5
q0 -41 -15 -68t-45.5 -57.5t-45 -50t-17.5 -51.5q-9 -185 -18 -387.5t-17 -382t-18.5 -354.5t-20.5 -295q-5 -50 -14.5 -89.5t-23 -87t-30.5 -108.5zM272 88q23 77 33 114.5t10 78.5l76 1435q1 32 15 50t46.5 46t48 51.5t15.5 63.5q0 52 -78 72t-162 20q-87 0 -167 -20
t-80 -72q1 -42 31.5 -73t61.5 -62t32 -72l82 -1435q0 -27 6 -60t15 -68.5t15 -68.5z" />
    <glyph glyph-name="quotedbl" unicode="&#x22;" horiz-adv-x="2132" 
d="M1020 12q-204 0 -390 79t-327 220t-220 327t-79 390q0 203 79.5 389.5t221.5 327t324.5 218t390.5 77.5t391.5 -78t323.5 -218.5t218.5 -324.5t78.5 -391q0 -208 -78 -391.5t-217.5 -324.5t-326 -220.5t-390.5 -79.5zM563 1901q-118 -64 -214.5 -153t-166 -199
t-107.5 -240.5t-38 -268.5h782q-2 104 -18.5 201.5t-47.5 199t-79 218.5t-111 242zM795 1982q-94 -18 -203 -65q133 -263 196.5 -470.5t63.5 -406.5h147v975q-47 0 -93 -8.5t-111 -24.5zM2007 1040q0 186 -67 351t-187 295t-276 215q-87 -170 -143 -314t-84.5 -280
t-28.5 -267h786zM1477 156q80 42 146.5 94t126.5 118t110 144q145 232 145 500h-784q0 -134 28.5 -271t84.5 -278.5t143 -306.5zM1028 1012v-971q58 0 110.5 8t116.5 23q88 19 193 71q-90 171 -146 313t-85 280.5t-29 275.5h-160zM1448 1917q-218 98 -420 98v-975h160
q0 102 17 209t49 211t79 214.5t115 242.5zM592 143q107 -54 186 -71q124 -31 221 -31v971h-147q0 -139 -29 -274.5t-87.5 -283t-143.5 -311.5zM37 1012q0 -272 143 -500q52 -81 110 -146t124 -116.5t149 -93.5q69 135 113.5 238t76.5 206t49 208t17 204h-782z" />
    <glyph glyph-name="Z" unicode="Z" horiz-adv-x="1944" 
d="M240 2040h1384q0 -90 -36.5 -133.5t-113.5 -105.5t-77 -105q47 0 102.5 8.5t111.5 20.5t103 21t70 9q34 0 50.5 -13.5t16.5 -45.5q0 -229 -44.5 -378t-105 -232t-160.5 -189.5t-144 -183.5q-39 -71 -95.5 -107.5t-113 -49.5t-98 -23.5t-41.5 -32.5q0 -162 74.5 -216.5
t221 -70t213 -46.5t66.5 -151h-1384q0 120 66.5 151t214 46t222 70t74.5 217q0 23 -42 33.5t-97 23.5t-111.5 49.5t-97.5 106.5q-44 77 -147 186.5t-161.5 189.5t-103.5 229t-45 378q0 32 18 45.5t54 13.5q31 0 97.5 -12t117 -19.5t109.5 -7.5q21 0 61 4q0 36 -19.5 53
t-84.5 62.5t-95 89t-30 115.5zM184 1511q4 -106 31 -178.5t69 -123.5t107 -105.5t78 -67.5v484q-23 0 -104 14t-115 14q-66 0 -66 -37zM1671 1520q0 34 -53 34q-39 0 -121 -17t-100 -17v-484q87 56 141 106t93.5 142t39.5 236zM731 1212h53l21 76h49l-20 -76h55l16 76h60v47
h-47l8 49h51v48h-39l18 92h-53l-18 -92h-47l22 92h-55l-25 -92h-55v-48h47l-12 -49h-51v-47h39zM827 1384h45l-12 -49h-43zM993 1212h236v68h-72v240h-70q-23 -41 -86 -47l-2 -72q35 0 68 22v-143h-74v-68z" />
    <glyph glyph-name="X" unicode="X" horiz-adv-x="1544" 
d="M680 2040l401 -776l-653 -711q-16 -29 -16 -109l88 48l16 -60l-100 -24q12 -62 49 -109l47 66l59 -50l-75 -55q20 -20 33 -29t29.5 -18t37.5 -20l16 83l68 -20l-39 -80q95 -24 156 -29l-13 93l88 -4l-22 -93q18 0 28.5 -0.5t22.5 -1.5q20 0 47.5 2t65.5 4l-33 93l88 12
l-20 -100q58 10 114.5 13t114.5 3t101.5 2t93.5 10q-53 -23 -101.5 -28t-153.5 -11.5t-165 -19.5l57 -109l-104 -4l12 109q-62 -4 -164 -4l23 -101l-97 4l21 101q-92 7 -172 35l-4 -105l-93 33l56 88q-28 10 -50 23.5t-63 44.5l-55 -93l-60 62l80 63q-52 65 -59 127l-92 -47
l-17 76l101 12q0 18 2 66t2 57l-377 957zM651 2007l-610 -475l496 -113zM692 2005l-112 -596l473 -113zM20 1493l357 -901l151 780zM571 1360l-147 -797l625 680z" />
    <glyph glyph-name="C" unicode="C" horiz-adv-x="424" 
d="M41 1133l18 30h50l22 -30h-90zM289 1133l14 30h49l25 -30h-88zM74 1176v28h26v-28h-26zM317 1176v28h27v-28h-27zM41 1108h88v-248h-88v248zM289 1108h84v-248h-84v248zM29 29h114v1859q0 38 -14 84t-41 51q-31 -11 -45 -54.5t-14 -80.5v-1859zM276 29h111v1859
q0 43 -13 86.5t-42 48.5q-30 -10 -43 -53t-13 -82v-1859zM16 8v1893q0 38 19.5 84t52.5 55q32 -4 48 -49.5t16 -89.5l4 -1893h-140zM260 8v1893q0 31 18 80t54 59q33 -4 50 -49.5t17 -89.5v-1893h-139z" />
    <glyph glyph-name="V" unicode="V" horiz-adv-x="2132" 
d="M731 891l225 -383q13 2 35 2q55 0 96 -35l406 416h-762zM743 479l172 13l-215 380l-125 -172q68 -42 108.5 -93.5t59.5 -127.5zM700 475q-18 65 -56.5 113t-90.5 71l-125 -184q12 -6 21 -10zM696 289l-239 26q-30 -26 -68 -26q-29 0 -56 19t-36 48q-4 11 -4 29
q0 40 30 69t76 29l121 193q-72 37 -114 37q-13 0 -41 -4q-85 -4 -153.5 -49t-108.5 -115.5t-40 -151.5v-20q11 -132 102 -221t218 -89h20q105 8 184 67.5t109 158.5zM705 311q8 46 8 76q0 24 -8 66l-240 -9q20 -23 20 -55q0 -25 -16 -57zM748 307l137 -10q-29 24 -29 78
q0 49 29 86l-133 -4q4 -23 4 -60q0 -46 -8 -90zM1599 444q-59 87 -83 240q-57 -26 -102 -77t-68 -109t-23 -109v-20q4 -66 33 -123t76.5 -99t108.5 -65t130 -23q84 9 153 53t109.5 116t40.5 157q0 8 -0.5 12.5t-1.5 10.5q-13 109 -65.5 176.5t-122 96t-139.5 28.5
q-55 0 -84 -13q14 -83 27.5 -131t43.5 -100q5 1 9 1.5t10 0.5q43 0 69 -39q15 -19 15 -47q0 -43 -35 -70q-21 -12 -43 -12q-25 0 -46.5 15t-31.5 34q-8 20 -8 35q0 40 28 61zM1516 1079q0 -111 12 -147l24 -189q36 13 86 13q83 0 167.5 -37t145 -114.5t68.5 -188.5
q1 -6 1.5 -10.5t0.5 -12.5q0 -99 -46 -183t-126.5 -136t-177.5 -58h-20q-93 0 -177 46t-136 127.5t-58 179.5q0 115 64.5 219t166.5 139q-3 28 -16 109l-383 -396q12 -33 12 -63q0 -55 -24 -84q-16 -18 -48.5 -32.5t-66.5 -14.5q-40 0 -74 22l-172 17q-26 -110 -117.5 -184
t-222.5 -85h-20q-68 0 -132 26.5t-114.5 75.5t-80.5 113.5t-36 141.5q0 95 45.5 179.5t125.5 137.5t178 62q10 2 30 2q87 0 154 -37l119 190q0 35 -12.5 45.5t-37.5 10.5q-13 0 -22 -0.5t-21 -1.5q-10 0 -38 4q-27 3 -27 34q0 17 11 34t34 28q6 2 20 2q8 0 22 -2t28.5 -4.5
t21.5 -3.5q11 -3 65.5 -5t90 -7.5t35.5 -18.5q0 -5 -11 -14q-19 -17 -37.5 -24.5t-35 -10.5t-23 -6t-6.5 -13q0 -9 6 -30h754l-21 188q29 4 64 8q5 0 28 2t39 2q98 0 105 -63q0 -51 -25 -78t-53 -27q-24 0 -27 17q0 7 21.5 12.5t35 15t13.5 35.5q-3 58 -72 58
q-17 0 -30.5 -3t-25.5 -6t-21 -6z" />
    <glyph glyph-name="B" unicode="B" horiz-adv-x="2140" 
d="M260 1323l-92 -328l-37 9l92 331zM57 528v-346l-41 2v344h41zM932 1243h-273v-127h273v127zM932 1073h-273v-133h273v133zM1012 815l-115 -244l115 -55l116 244zM1196 721l-117 -250l117 -55l117 248zM1380 629l-120 -248l120 -57l113 247zM403 1061l-131 -529h-180v-49
h201zM0 92h2040v-84h-2040v84zM1016 1411v-563l864 -453q68 -32 68 -143v-137h-1872v422l205 790zM1016 1524v-64l-719 -84l59 240zM1016 1612v-60l-647 101l16 67zM709 1217h63v-72h-63v72zM709 1040h63v-71h-63v71zM944 604l29 55l67 -26l-28 -62zM1128 504l27 59l66 -31
l-29 -61zM1313 412l26 59l66 -31l-29 -61z" />
    <glyph glyph-name="N" unicode="N" horiz-adv-x="2187" 
d="M492 1587q21 141 67 230q-5 11 -30.5 17.5t-63.5 6.5q-69 0 -88 -24q-41 -59 -61.5 -109.5t-30.5 -128.5q0 -14 82 -14q117 0 125 22zM315 1145q15 -96 34 -138.5t63 -109.5q4 -4 10 -4q24 0 78.5 29.5t54.5 42.5q-31 46 -49.5 104t-22.5 102q0 9 -28 9q-41 0 -90.5 -11
t-49.5 -24zM483 1493q0 10 -63 10q-33 0 -67 -2.5t-57.5 -6.5t-23.5 -9q-8 -55 -8 -109q0 -81 25 -143q3 -8 43 -8q44 0 95.5 10.5t51.5 24.5q-10 37 -10 102q0 68 14 131zM776 1075q-26 67 -26 109q1 6 1.5 11t0.5 13q0 9 -33 9q-43 0 -98 -10.5t-58 -18.5q0 -45 20 -98.5
t46 -98.5q0 -2 8 -2q25 0 82 32t57 54zM580 1495q-21 -70 -21 -174v-49q2 -10 66 -10q127 0 127 26q0 23 -0.5 37.5t-1.5 32.5q0 74 14 158q0 10 -41 10q-48 0 -95.5 -9t-47.5 -22zM641 1796q-45 -76 -53 -205q0 -18 63 -18q47 0 86 9.5t43 25.5q5 65 39 143
q0 16 -54.5 35.5t-94.5 19.5q-26 0 -29 -10zM1024 260q-103 65 -199.5 111t-249.5 112q-102 47 -186 47q-53 0 -53 -26q0 -31 80 -88q40 -29 105 -62.5t164.5 -79.5t192 -86t134.5 -59q53 -23 86 -23q39 0 39 27q0 26 -30 60.5t-83 66.5zM248 487q22 60 34.5 87t12.5 30
q0 5 -14.5 20.5t-35.5 48.5t-52 99q-142 295 -142 598q0 165 49.5 296.5t155.5 207.5t266 76q154 0 350 -74q23 66 75.5 102.5t111.5 36.5q48 0 85.5 -28t47.5 -82q29 53 106 53q66 0 121.5 -40t55.5 -99q0 -18 -11 -47q44 61 115 61q40 0 78 -22.5t61 -59.5t23 -80
q0 -28 -12 -55q33 55 92 55q44 0 74 -43.5t30 -126.5q0 -79 -29 -178q-45 -272 -92.5 -452.5t-116 -320t-166 -232.5t-233.5 -146q-20 -61 -64 -103t-83 -42q-13 0 -17 2q-37 0 -181.5 48.5t-309 122.5t-275 150t-110.5 137z" />
    <glyph glyph-name="M" unicode="M" horiz-adv-x="1804" 
d="M12 541h101v-478h-101v478zM1720 541v-478h-104v478h104zM135 604h96v-592h-96v592zM1595 600v-592h-96v592h96zM244 336h1245v-80h-1245v80z" />
    <glyph glyph-name="less" unicode="&#x3c;" horiz-adv-x="2261" 
d="M1665 348v176q64 -10 117 -10q69 0 69 23q0 12 -24 30q-50 26 -244 49q-7 14 -33.5 45t-93 68.5t-168.5 54.5q76 -11 149 -22t153.5 -25.5t164 -33t133.5 -35.5q60 -19 95.5 -64.5t35.5 -95.5q0 -45 -27.5 -82.5t-86.5 -60.5t-148 -23q-42 0 -92 6zM408 348
q-17 -2 -46 -2q-161 0 -245 49.5t-84 118.5q0 47 40 89.5t111 64.5q67 23 179 46t223 40.5t198 29.5q-148 -24 -214.5 -80t-82.5 -88q-214 -25 -260 -49q-3 -3 -10.5 -8.5t-7.5 -11.5q0 -23 151 -23h48v-176zM1649 524v-172q0 -18 -15 -18q-14 0 -14 18v172q0 15 14 15
q15 0 15 -15zM453 524v-172q0 -20 -15 -20q-14 0 -14 20v172q0 19 14 19q15 0 15 -19zM1612 524v-172q-1 -71 -25 -126.5t-64.5 -96t-90.5 -61.5t-103 -21q-83 0 -150.5 54.5t-95.5 162.5q-10 43 -43 43q-27 0 -45 -43q-15 -70 -55 -120t-95 -75.5t-116 -25.5q-68 0 -129 35
t-98 106.5t-37 180.5v180q95 252 588 252q223 0 373.5 -66.5t185.5 -206.5zM1552 504q0 68 -75 122.5t-196 84.5t-249 30q-195 0 -333.5 -58t-178.5 -175v-156q13 -112 78.5 -171.5t151.5 -59.5q83 0 149 52.5t82 145.5q11 39 55 39q25 0 41 -11t19 -28q27 -100 84 -147
t129 -47q60 0 116.5 30t91.5 79t35 106v164z" />
    <glyph glyph-name="greater" unicode="&#x3e;" horiz-adv-x="637" 
d="M567 475q15 -12 28 -41.5t13 -68.5h-59v-29q0 -129 -43.5 -201.5t-101 -99.5t-111.5 -27q-98 0 -162.5 49t-93.5 122t-29 153v1624h117v-1624q0 -79 37.5 -139.5t113.5 -67.5q59 0 107.5 45.5t48.5 138.5q0 14 -4 56h-63q0 75 38 110h33q-14 27 -14 39t8 12q5 0 19 -6
q3 -2 12 -23.5t26 -21.5q18 0 29 22t12 23q6 6 15 6q8 0 8 -12q0 -7 -10 -39h26zM20 1935v-374h93v374h-93zM8 2040h117v-68h-117v68z" />
    <glyph glyph-name="question" unicode="?" horiz-adv-x="2036" 
d="M625 184l34 -45h662l39 45h-735zM815 676q-3 -38 -52.5 -82.5t-98.5 -44.5q-33 0 -56 22q-26 27 -26 74t19 99t40 83q8 17 18 17q7 0 15.5 -13.5t11.5 -13.5l3 1.5t3 0.5q10 4 18.5 18.5t24.5 18.5q35 0 60 -11t28 -26q0 -23 -16 -36t-42 -29.5t-26 -26.5q0 -6 4 -10
q21 -17 37 -17q5 0 12 2.5t11.5 4.5t7.5 3.5t5.5 2t2.5 -7.5q0 -15 -4 -29zM840 664q4 12 16 32.5t21 20.5q6 -6 6 -29q0 -17 -0.5 -27.5t-1.5 -23.5q0 -22 7 -31.5t27 -9.5q11 1 20.5 10.5t20.5 24.5t21 28q5 9 16 9t20.5 -6t10.5 -15q0 -16 -0.5 -24t-1.5 -16.5
t-2.5 -18.5t-1.5 -17q0 -19 14 -22q17 0 24.5 10t21 36.5t22.5 29.5q37 0 37 -17q1 -5 1.5 -9t0.5 -11q0 -9 -2 -23t-2 -18q0 -27 28 -35q14 0 24.5 10.5t23 34t18.5 31.5q3 8 16 8q15 0 31 -11t16 -26q-4 -32 -4 -41q0 -33 29 -39q21 0 42 41.5t21 69.5q0 6 -4 10
q-88 19 -175 46t-126 46q-28 14 -78 78.5t-88.5 134.5t-38.5 101q0 8 2 10q11 22 23 22q20 0 44 -36.5t67.5 -114.5t73.5 -116t59 -38q10 0 14 2q21 9 21 37q0 53 -66.5 153t-112.5 144q-71 80 -168 80q-20 20 -69 20q-58 0 -124.5 -25.5t-84.5 -51.5q-2 -2 -2 -7
q0 -6 6 -20t6 -21q-23 -38 -67 -166t-76.5 -255.5t-32.5 -182.5q0 -29 12 -32q17 0 33 57t55.5 215t77.5 252.5t82 120.5q2 1 4 1.5t6 0.5q23 0 23 -11q0 -42 -16 -89t-41.5 -101.5t-30.5 -69.5q-27 -58 -27 -141q0 -123 92 -123q23 0 35 4q35 6 88 51.5t64 88.5zM240 1749
q0 76 49 98q19 13 41 13q96 0 229 -215l4 20q-91 159 -172 195q-36 18 -67 18q-52 0 -80 -43q-31 -46 -31 -174q1 -35 1.5 -63.5t0.5 -65.5q44 -86 58 -147t18 -116.5t15 -71t54 -15.5q20 0 49.5 3.5t122.5 14.5q0 67 17 180q-33 34 -123.5 96.5t-136 120t-49.5 152.5z
M1079 713q45 -27 110.5 -46.5t164.5 -43.5t139 -39q8 2 29 2q86 0 158.5 -42t113.5 -108.5t41 -134.5q0 -86 -63 -141l12 -31q69 0 69 -43q0 -26 -28 -48t-74 -22h-1683q-17 0 -35.5 21t-18.5 49q0 16 11 35q8 21 26.5 26.5t48 6.5t35.5 6q8 8 8 20q0 7 -8 47
q-29 99 -29 232q0 69 11 188t21 207.5t19 201.5t9 193q0 133 -19 224q-4 20 -4 24q0 8 5.5 12.5t20 10t28.5 12.5q0 33 -0.5 58t-1.5 55q0 108 25 177.5t97 69.5q24 0 52 -8q57 -16 105 -72.5t93 -132.5q33 180 54 222q27 70 81.5 105.5t116.5 35.5q50 0 96 -22.5t73.5 -65
t27.5 -96.5q0 -34 -12 -70q-26 -85 -47 -149t-49.5 -154t-43.5 -150.5t-33 -156.5q9 2 25 2q64 0 137 -71.5t129.5 -167.5t69.5 -157q2 -6 2 -18q0 -24 -14 -37.5t-35 -13.5q-24 0 -45 12q-38 24 -76.5 88t-76 130.5t-54.5 70.5q-8 0 -8 -6q0 -21 38.5 -89.5t85 -131
t70.5 -76.5zM252 559q27 0 45 22.5t18 55.5q0 34 -17.5 55t-45.5 21q-25 0 -42 -22t-17 -54q0 -30 17.5 -54t41.5 -24zM80 29h1675l25 22h-1737z" />
    <glyph glyph-name="grave" unicode="`" horiz-adv-x="0" 
 />
    <glyph glyph-name="q" unicode="q" 
d="M1565 1751q12 0 12 -10q0 -12 -12 -12q-9 0 -9 12q0 4 3 7t6 3zM1612 1679q-3 0 -8 5t-5 8q0 6 5 11t8 5q6 0 11 -5t5 -11q0 -3 -5 -8t-11 -5zM1696 1661q-13 0 -13 10q0 12 13 12q12 0 12 -12q0 -10 -12 -10zM1712 1595q-12 0 -12 13q0 12 12 12q17 0 17 -12
q0 -13 -17 -13zM1772 1628q-13 0 -13 17q0 16 13 16q6 0 11 -5t5 -11q0 -7 -5 -12t-11 -5zM1653 1636q-8 0 -8 9q0 8 8 8t8 -8q0 -9 -8 -9zM1821 1604q12 0 12 -13q0 -14 -12 -14q-13 0 -13 14q0 3 5 8t8 5zM1851 1528q9 0 9 -12q0 -5 -3 -9t-6 -4q-12 0 -12 13q0 12 12 12z
M1888 1591q6 0 11.5 -4t5.5 -10t-5.5 -11t-11.5 -5q-8 0 -8 16q0 14 8 14zM1847 1628q8 0 8 -12q0 -8 -8 -8t-8 8q0 12 8 12zM1759 1583q13 0 13 -10q0 -12 -13 -12q-10 0 -10 12q0 10 10 10zM1292 1556l-100 48l-668 -916l109 -51zM1184 1649l159 -80l-700 -961l-151 76z
M1980 1591l-473 197q41 -84 97.5 -142t125 -99t171.5 -91zM63 575l969 -524l848 1372q-140 4 -224.5 8t-124.5 31.5t-58.5 99t-40.5 255.5l-287 114zM315 643l662 -362l702 1120h58l-750 -1174l-723 402l877 1171l264 -121l6 -51l-248 117zM811 524l141 -75l588 966l47 -10
l-626 -981l-177 96l668 1008l12 -43zM1128 1964l908 -369l-992 -1591l-1036 563z" />
    <glyph glyph-name="w" unicode="w" horiz-adv-x="2157" 
d="M1065 1020q-45 33 -70 59q0 -7 -0.5 -11.5t-1.5 -10.5q0 -6 2 -8q-4 4 -20 6t-21.5 5.5t-5.5 10.5q0 8 19 8q-5 8 -15 8q-6 0 -14 -4l29 25q-6 -6 -6 -12q0 -3 3 -7t7 -10q-2 2 -2 8q0 10 6 13q-14 13 -43 59q-70 13 -127.5 34t-107.5 64.5t-79 110.5q-8 16 -8 39
q0 29 22 49.5t66 20.5l-69 84q-12 8 -25 8q-4 0 -12 -4l-348 -297q-4 -4 -4 -15q0 -15 8 -20l448 -520q5 -8 21 -8q8 0 10 4l344 290q2 2 2 9q0 9 -8 12zM580 1083q-7 13 -7 29q0 8 1 17l3.5 31.5t2.5 31.5q0 31 -13 51q18 -17 38.5 -20t61 -6.5t56.5 -12.5q22 -11 22 -35
q0 -18 -13.5 -32.5t-35.5 -14.5q-9 0 -24 6q23 -30 55 -30q27 0 53 18l2 -4l-118 -104l-5 8q29 27 29 57q0 28 -20 51q0 -67 -45 -67q-23 0 -43 26zM328 1171q1 9 1.5 16t0.5 17q0 8 -2 13q9 -6 17.5 -6.5t21.5 -2.5q8 -5 8 -12q0 -14 -13 -14q-2 1 -3.5 1.5t-4.5 0.5
q6 -6 15 -6q8 0 14 6v-4l-33 -27v2q8 4 8 12q0 11 -6 17q0 -19 -12 -19q-6 0 -12 6zM297 1212l-23 43l11 9l43 -25l-9 -6l-12 6l-12 -10l4 -12zM293 1237l10 6l-20 12zM2048 475v-428q-62 0 -184 -8t-176 -8q-8 1 -14.5 1.5t-16.5 0.5q-199 -31 -326 -31q-140 0 -248 31
q-43 10 -96 22.5t-100.5 30t-86 43.5t-65.5 64q-43 72 -43 153q0 27 2 39q-12 -2 -37 -2q-113 0 -180 45t-67 127q0 18 2 29q3 17 12.5 31t23 25t31 22.5t39.5 25.5q-60 13 -158 47q-105 -47 -204 -80q-30 -4 -39 -4q-51 0 -77 30.5t-26 72.5q0 53 33 73q37 18 90.5 44.5
t95 47t100.5 45t97 35.5l-203 234q-6 6 -6 16q0 15 10 23l361 307q8 8 18 8q11 0 19 -8l96 -111q53 -39 113.5 -46t132.5 -13t133 -41q47 -32 121.5 -69t139 -68.5t116.5 -67.5q91 -66 162 -150t141 -204q53 -94 229 -94q9 1 16.5 1.5t18.5 0.5v-168l-236 -25zM1917 420
q11 0 21 10t10 23t-9.5 21.5t-21.5 8.5t-22.5 -8.5t-10.5 -21.5t11 -23t22 -10z" />
    <glyph glyph-name="e" unicode="e" 
d="M2036 4h-2028q0 5 4.5 30t38 160t99.5 381.5t157 577.5q39 13 129 51.5t217.5 114t232.5 182t134 232.5q27 -126 133.5 -233t233 -181.5t218.5 -113.5t132 -52q33 -127 91.5 -350.5t116.5 -447.5t91 -351zM987 1133h-639l-84 -328zM1049 1133l731 -328l-84 328h-647z
M236 700l-168 -655h260zM1804 700l-96 -655h264zM987 1083l-711 -319l105 -719h612zM1049 1083v-1038h608l106 711z" />
    <glyph glyph-name="r" unicode="r" horiz-adv-x="2195" 
d="M1847 403q27 17 56 17q34 0 62.5 -24.5t44 -60.5t15.5 -75q0 -71 -51 -88q-125 -47 -221.5 -74.5t-187 -43.5t-179 -23.5t-178.5 -7.5q-96 0 -285 11t-247 13q-219 11 -369.5 114t-221.5 265t-71 350v51q10 166 74.5 300.5t169 226.5t243.5 141t296 49q154 0 284 -43.5
t223 -132.5t144 -227.5t51 -325.5q0 -129 -49 -241t-146 -192t-237 -114q138 1 298.5 22t295 52.5t186.5 60.5zM1939 197q17 6 27 27.5t10 49.5q0 40 -17 68.5t-52 28.5q-23 0 -43 -11q-147 -68 -349.5 -104.5t-408.5 -36.5q-137 0 -258.5 15.5t-235.5 46.5
q-209 58 -284.5 230t-75.5 337q9 108 61.5 192t129.5 137t163.5 80t169.5 27q139 -4 245 -65t163 -163.5t59 -224.5q0 -55 -24.5 -121.5t-80.5 -128.5t-147 -101.5t-219 -39.5q-148 0 -232.5 95.5t-90.5 287.5q0 82 44 145.5t116.5 97.5t150.5 34q291 0 291 -285
q0 -118 -70.5 -169.5t-177.5 -51.5q-11 1 -20 1.5t-23 0.5q-78 9 -111 75t-33 140q6 58 39.5 88.5t75.5 30.5q41 0 72 -27.5t37 -79.5q-9 21 -39 37.5t-62 16.5q-59 0 -67 -66q-2 -10 -2 -33q0 -50 26.5 -84.5t79.5 -46.5q30 -4 53 -4q157 0 166 166q1 9 1.5 17t0.5 20
q0 112 -61.5 157.5t-171.5 45.5q-116 0 -190 -69t-74 -165q0 -313 268 -323h31q137 0 226 57t128 142t39 169q0 80 -49 166.5t-140 144.5t-206 58t-225.5 -45t-183.5 -133t-77 -211q0 -86 22 -175.5t72 -166.5t141.5 -131t225.5 -68q23 0 38.5 -0.5t33.5 -1.5
q147 0 282.5 50.5t224.5 169t89 306.5q0 174 -53 319.5t-196.5 243t-397.5 107.5q-111 0 -231.5 -37.5t-231 -118t-180.5 -208.5t-74 -302v-30q0 -114 25.5 -227.5t91 -217.5t181.5 -172.5t290 -81.5q96 -5 164 -10.5t122.5 -9t133 -8t145.5 -4.5q114 0 224.5 12t231.5 41.5
t254 77.5z" />
    <glyph glyph-name="t" unicode="t" horiz-adv-x="2152" 
d="M-8 268q190 38 326.5 62.5t284.5 42.5t286 22q129 6 291 6q122 0 240 -3t237.5 -10t219.5 -18t167 -26q-27 -74 -43.5 -96.5t-73.5 -67.5q-41 -32 -139.5 -61t-228.5 -51.5t-250.5 -35.5t-241.5 -20q-148 -4 -205 -4q-99 0 -192 7t-212.5 27.5t-256.5 53.5
q-91 26 -148.5 59t-60.5 113zM1657 369v-142q149 32 354 105q-78 13 -180.5 23t-173.5 14zM1583 373l-395 12v-221q173 10 395 49v160zM1145 164v84q33 13 33 33q0 16 -33 26v74q-176 0 -252 -4v-217q35 -2 100 -2t152 6zM856 160v213q-55 -3 -117.5 -7t-133.5 -11.5
t-138 -18.5v-148q254 -28 389 -28zM391 319q-250 -34 -362 -59q129 -33 362 -63v122z" />
    <glyph glyph-name="y" unicode="y" horiz-adv-x="2140" 
d="M303 1892l78 72l1659 -1872l-88 -88zM311 1892l125 -141l72 61l-127 144zM1952 16l80 76l-115 131l-82 -76zM236 1636l20 -92l92 -20l-88 -21l-24 -88l-27 88l-80 21l84 20zM1104 1808l20 -92l93 -20l-89 -21l-24 -88l-25 88l-84 21l84 20zM827 2007l25 -90l92 -21
l-92 -20l-25 -88l-22 88l-80 20l84 21zM1217 1556l22 -92l92 -20l-92 -21l-22 -84l-25 84l-80 25l84 16zM496 1335l20 -88l92 -22l-88 -17l-24 -88l-25 84l-84 25l84 18zM117 1364l18 -92l92 -21l-92 -18l-18 -88l-29 88l-80 18l84 21z" />
    <glyph glyph-name="u" unicode="u" horiz-adv-x="2107" 
d="M1036 604l807 1276q2 2 2 12q0 9 -4 29t-4 29q0 12 10 12q4 0 8 -2l84 -47q15 -5 15 -12q0 -6 -34.5 -19t-41.5 -22l-807 -1280q21 -13 21 -48q0 -82 -105 -268q-17 -30 -62.5 -114t-60 -103.5t-30.5 -19.5q-6 0 -19.5 4t-31.5 13.5t-35 18.5q-57 33 -73 45.5t-16 34.5
q0 24 19 56.5t131 208.5q34 58 93 130t110 72q12 0 24 -6zM528 991l1176 953q8 7 12 41t13 34q4 0 12 -8l61 -67q13 -11 13 -15q0 -6 -38 -6t-46 -6l-1172 -961q8 -11 8 -24q0 -46 -62 -117.5t-128 -130.5q-22 -19 -83 -75t-75 -68.5t-28.5 -21.5t-26.5 -9t-22 7t-24 22
t-34 36q-39 43 -49 57t-10 30q0 19 21 43t52 50t154 126q159 127 237 127q26 0 39 -17z" />
    <glyph glyph-name="i" unicode="i" horiz-adv-x="727" 
d="M348 4q-44 0 -104 36.5t-76 147.5q-25 159 -30 194.5t-7 53.5l92 -164l-35 -49q2 -48 32 -121t116 -73v618q-28 0 -48 24t-20 56q0 37 19.5 59.5t48.5 22.5v1067q-28 0 -48 23.5t-20 52.5q0 36 24.5 58t55.5 22q25 0 43 -10.5t27.5 -28t9.5 -41.5q0 -30 -19 -53t-53 -23
v-1067q36 0 54 -22t18 -60q0 -32 -18.5 -54.5t-53.5 -25.5v-618q63 0 97.5 42.5t47.5 86.5t15 65l-41 49l96 164q-2 -18 -7 -59t-27 -189q-18 -112 -79.5 -148t-109.5 -36zM268 1917q6 -121 16 -335t22.5 -499t12.5 -268q-34 73 -59.5 127.5t-54.5 135.5t-46.5 169
t-17.5 183q0 117 29.5 237t97.5 250zM432 1917q127 -243 127 -492q0 -123 -28.5 -233.5t-67.5 -199t-82 -177.5q0 -17 13 268t22.5 499t15.5 335z" />
    <glyph glyph-name="o" unicode="o" horiz-adv-x="1137" 
d="M68 1309q-56 176 -56 313q0 41 2 57v29q0 87 50.5 150.5t125 100t156.5 54t143 17.5h31q57 -4 173.5 -18t289.5 -36q47 -5 47 -223q0 -280 -59 -661q-2 -66 -4.5 -165.5t-5 -224.5t-2.5 -185.5t-3 -143.5q21 -53 21 -113q0 -74 -34 -136t-103 -87q-24 -8 -78 -13.5
t-129 -5.5q-118 0 -239 18t-200.5 62t-80.5 117q0 96 45.5 149t105.5 60q23 0 74 2.5t94 5.5q-36 0 -69.5 62.5t-66.5 156t-36 97.5q-23 0 -67 10t-58 26q-59 85 -59 164q0 56 28 123q-18 58 -18 92q0 47 18 76q-11 0 -36 70zM545 1661q0 29 -67 64t-161.5 60t-162.5 25
q-13 0 -19 -0.5t-14 -1.5q-62 -60 -62 -151q0 -76 3.5 -132.5t19.5 -115.5t49 -104q31 -43 90.5 -68t124.5 -25q68 0 119 25q35 16 35 68q0 18 -0.5 29.5t-1.5 25.5q1 8 1.5 14.5t0.5 18.5q4 32 10.5 80t14.5 94.5t20 93.5zM907 1096q10 7 24 75.5t24.5 154.5t19 185.5
t8.5 190.5q0 194 -45 194q-2 0 -14 -4q-137 -56 -228.5 -119.5t-124.5 -173.5q-32 -123 -32 -305q0 -143 24 -223q63 -18 164 -18q138 0 180 43zM705 983q-5 13 -31.5 24t-52.5 11q-38 0 -58 -23q-28 -45 -28 -92q0 -68 57 -125q9 -6 31 -6q26 0 36 10q27 14 44.5 50
t17.5 77q0 39 -16 74zM735 999q6 -8 13.5 -35.5t7.5 -54.5q0 -115 -105 -178q24 -86 39 -126.5t62 -139.5q5 1 8.5 1.5t11.5 0.5q36 0 81.5 -15.5t66.5 -43.5q0 105 0.5 159t2 147l3 186t2.5 144q-29 -20 -80.5 -32.5t-112.5 -12.5zM571 1704q79 122 361 235
q-279 46 -369 58q-14 2 -51 2q-60 0 -125.5 -13.5t-138 -47.5t-131.5 -87q8 2 24 2q116 0 259.5 -43t170.5 -106zM889 1675q26 -18 26 -129q0 -92 -18.5 -209t-32.5 -137q-22 -24 -73.5 -40.5t-92.5 -16.5q-38 0 -51 16q-20 64 -20 150q0 56 8 118t24 156q9 20 45.5 45
t79 41.5t70.5 16.5q20 0 35 -11zM672 1409q-15 -21 -15 -100q0 -102 15 -121q8 -8 30 -8q35 0 83.5 14t54.5 27q10 14 24.5 66.5t14.5 92.5q0 28 -11 35q-13 8 -84 8q-98 0 -112 -14zM139 1217q-8 -23 -8 -52q0 -33 8 -65q96 -43 275 -43q87 0 110 10q-7 25 -10.5 78
t-5.5 63q-61 -34 -162 -34q-119 0 -207 43zM152 1057q-35 -38 -35 -101q0 -45 19.5 -89.5t43.5 -55.5q45 -11 142 -24t159 -13q39 0 68 6q-51 42 -51 131q0 72 43 107q-38 -4 -68 -4q-60 0 -126.5 6t-120.5 16t-74 21zM317 735q31 -157 103 -235q53 -58 141 -58q56 0 144 27
q-18 42 -52 128t-53 130q-45 -2 -121 -2q-97 0 -162 10zM705 1591q-31 -48 -31 -88q0 -33 26 -43q170 0 189 35q2 4 2 25q0 43 -8 85t-19 44q-32 0 -62.5 -8.5t-57 -22.5t-39.5 -27zM571 227q7 -43 37.5 -80.5t73.5 -58t88 -20.5q79 0 123 61q37 55 37 127q0 66 -33 104
q-24 25 -64 39.5t-81 14.5q-76 0 -129.5 -40t-53.5 -114q0 -20 2 -33zM793 1499q-7 0 -12 5t-5 12q0 12 17 12q16 0 16 -12q0 -7 -5 -12t-11 -5zM293 1276q-25 0 -25 33q0 12 6.5 21t18.5 9q7 0 13.5 -8.5t6.5 -21.5q0 -14 -6.5 -23.5t-13.5 -9.5zM344 809q-22 0 -22 31
q0 11 7 21.5t15 10.5q9 0 17 -10t8 -22q0 -31 -25 -31zM532 475q-11 0 -17.5 10t-6.5 23t6 23t18 10q10 0 15.5 -10t5.5 -23q0 -12 -5.5 -22.5t-15.5 -10.5z" />
    <glyph glyph-name="p" unicode="p" horiz-adv-x="1092" 
d="M780 1427q-15 0 -26 -19.5t-11 -47.5v-1133q0 -27 11 -47t26 -20h105q15 0 27 20t12 47v1133q0 27 -12 47t-27 20h-105zM768 1460h129q19 0 33 -21t14 -50v-1188q0 -31 -13.5 -52.5t-33.5 -21.5h-129q-20 0 -34.5 22t-14.5 52v1188q0 28 15 49.5t34 21.5zM475 1427
q-15 0 -27 -19.5t-12 -47.5v-1133q0 -26 12 -46.5t27 -20.5h100q19 0 30 20t11 47v1133q0 28 -11 47.5t-30 19.5h-100zM465 1460h123q21 0 37 -21t16 -50v-1188q0 -31 -16 -52.5t-37 -21.5h-123q-22 0 -35.5 21t-13.5 53v1188q0 30 13.5 50.5t35.5 20.5zM168 1427
q-16 0 -25.5 -20t-9.5 -47v-1133q0 -26 10 -46.5t25 -20.5h104q16 0 27.5 19.5t11.5 47.5v1133q0 29 -11.5 48t-27.5 19h-104zM156 1460h129q20 0 33.5 -20.5t13.5 -50.5v-1188q0 -32 -13.5 -53t-33.5 -21h-129q-19 0 -33 22.5t-14 51.5v1188q0 27 14.5 49t32.5 22z
M932 1520h-811q-50 0 -63 -37.5t-13 -93.5v-1233q0 -48 22 -79.5t54 -31.5h811q33 0 54.5 26.5t21.5 71.5v1233q0 47 -23 95.5t-53 48.5zM961 1544q33 0 56 -35t23 -86v-1298q0 -53 -23 -87t-56 -34h-865q-34 0 -59 34.5t-25 86.5v1298q0 57 14 89t70 32h865zM621 1661h294
q18 0 32 17t14 42v144q0 17 -6 30t-17 21t-23 8h-294q-19 0 -34.5 -17t-15.5 -42v-144q0 -24 15.5 -41.5t34.5 -17.5zM135 1661h301q17 0 30 16.5t13 42.5v144q0 26 -12.5 42.5t-30.5 16.5h-301q-10 0 -20 -7.5t-16.5 -21t-6.5 -30.5v-144q0 -24 13.5 -41.5t29.5 -17.5z
M604 1636q-22 0 -35.5 20.5t-13.5 51.5v168q0 32 13.5 50t35.5 18h324q21 0 35 -18t14 -50v-168q0 -31 -14.5 -51.5t-34.5 -20.5h-324zM125 1636q-22 0 -35.5 20.5t-13.5 51.5v168q0 32 13.5 50t35.5 18h319q22 0 37 -18.5t15 -49.5v-168q0 -30 -15.5 -51t-36.5 -21h-319z
M113 1571h827q33 0 56.5 31.5t23.5 72.5v234q0 39 -23.5 68.5t-56.5 29.5h-827q-21 0 -39 -14t-27.5 -35.5t-9.5 -48.5v-234q0 -41 22 -72.5t54 -31.5zM96 1544q-34 0 -59 34.5t-25 86.5v258q0 48 24 82.5t60 34.5h865q34 0 56.5 -33.5t22.5 -83.5v-260q0 -53 -23 -86
t-56 -33h-865zM924 72q12 0 12 12t-12 12q-2 0 -5.5 -4t-3.5 -8t3 -8t6 -4zM924 55q-27 0 -27 29t27 29q13 0 22.5 -8.5t9.5 -20.5q0 -11 -10 -20t-22 -9z" />
    <glyph glyph-name="bracketleft" unicode="[" horiz-adv-x="940" 
d="M324 100q26 0 57.5 49.5t61 122t51 147.5t26.5 126q9 36 17 169t28 236t79 177.5t167 74.5q13 0 41 -4v10l45 -4v-28l-45 -9v13q-118 0 -176 -67.5t-78 -165t-34 -256t-32 -222.5q-12 -57 -47.5 -158t-79 -174.5t-86.5 -73.5l5 -55h-299v1272q0 67 24.5 98t85.5 31v100
q-15 4 -37 25.5t-22 69.5h-68v112h328v-112h-68q-2 -48 -23.5 -70.5t-35.5 -26.5v-98q62 0 86 -30t24 -99zM135 1368q-29 0 -50.5 -21.5t-21.5 -54.5v-84h218v84q0 33 -20.5 54.5t-51.5 21.5h-74zM281 129h-218v-84h218v84z" />
    <glyph glyph-name="bracketright" unicode="]" horiz-adv-x="2132" 
d="M432 915q7 0 23.5 -0.5t38.5 -1.5q90 0 161.5 24t71.5 91q-3 27 -5.5 41.5t-6 23.5t-6.5 19q22 4 61 4q59 0 78 -19t41 -63q14 -22 35 -22q9 0 22.5 5.5t18.5 8.5q4 14 6 32t3.5 21.5t12.5 3.5h1045v-155l-727 -68q-33 -54 -72 -88q0 -72 -23.5 -103t-56.5 -46t-33 -27
q-6 -89 -61 -147t-123 -58q-118 0 -180 154q-4 2 -13 4t-30 2q-68 0 -121 -51q-24 -20 -47.5 -92t-42 -161.5t-28 -148.5t-13.5 -86h-453q23 138 46.5 243.5t68 216t120 212.5t185.5 178zM483 840v-49q-35 -7 -110.5 -58t-165 -213t-131.5 -457h336q5 56 25 173t71 237
t135 135q1 3 28 42t46.5 77t19.5 66q0 39 -41 47h-213zM864 633q-10 -8 -24.5 -30.5t-14.5 -51.5q0 -31 27 -72q39 -43 84 -43q37 0 68.5 24t39.5 52q9 22 9 41q0 44 -34 75t-99 31q-3 0 -10 -27t-7 -54q0 -57 33 -78q-44 3 -59 25t-15 61q0 30 2 47z" />
    <glyph glyph-name="backslash" unicode="\" horiz-adv-x="0" 
 />
    <glyph glyph-name="a" unicode="a" 
d="M1016 1149q51 0 88 -35t37 -86q0 -33 -17.5 -61.5t-46 -46t-61.5 -17.5q-50 0 -84.5 37t-34.5 88q0 50 33.5 85.5t85.5 35.5zM1016 1329q-124 -2 -210.5 -88.5t-86.5 -212.5q0 -83 39.5 -153.5t108.5 -111t149 -40.5q85 0 156.5 40.5t112 110.5t40.5 154
q0 83 -40.5 152.5t-112.5 109t-156 39.5zM1020 1632q125 0 238 -47t197 -131t130.5 -196t46.5 -238q0 -162 -82 -303t-223 -223t-307 -82q-165 0 -304.5 82t-221.5 223t-82 303q0 126 47.5 239t130 195.5t195 130t235.5 47.5zM1016 1839q-218 0 -404 -109.5t-294.5 -296.5
t-108.5 -405q0 -219 109 -406.5t295 -296t403 -108.5q220 0 407.5 108.5t297.5 295.5t110 407q0 219 -110 405t-297 296t-408 110zM1016 2040q209 0 394 -78t326 -217.5t220.5 -324.5t79.5 -392q0 -276 -137 -511t-372 -372t-511 -137q-273 0 -506 137t-369.5 372
t-136.5 511q0 273 136.5 506t369.5 369.5t506 136.5z" />
    <glyph glyph-name="s" unicode="s" horiz-adv-x="1528" 
d="M1305 152q-31 -41 -123 -70.5t-219.5 -44t-260.5 -14.5q-94 0 -189 7.5t-174 23t-134.5 39.5t-73.5 54q-34 55 -58 160t-35 239.5t-11 289.5q0 203 18.5 404.5t50.5 358.5q33 149 285 234q99 36 174.5 49.5t200.5 13.5l-144 39l4 80l156 -94l-45 115l88 -29l-6 -86
q11 7 22.5 15.5t26 18.5t31.5 17q35 19 67 19q62 0 131 -90q-47 32 -74.5 46.5t-54.5 14.5q-49 0 -114 -66q129 -5 289 -67q55 -25 108 -67t90.5 -98t44.5 -116q18 -135 30.5 -323.5t12.5 -354.5q0 -260 -28 -451t-86 -267zM1255 168q63 66 90 241.5t27 419.5
q0 198 -16 416.5t-29 310.5q-14 76 -62.5 127.5t-108 80.5t-128.5 53q0 -14 21 -32t61 -45t63 -49t23 -46q-29 31 -121.5 83t-134.5 52q-2 -2 -2 -11q0 -12 21 -40.5t30.5 -43.5t9.5 -36q-21 34 -80.5 70t-82.5 36q-11 -2 -11 -12q0 -7 19.5 -51t19.5 -68q-24 53 -56 90
t-48 37q-14 0 -25.5 -18.5t-22.5 -48.5t-20 -56q-8 14 -9.5 52t-5 54.5t-22.5 16.5q-4 0 -7 -0.5t-7 -1.5q-43 -12 -82 -109q-4 22 -4 29q0 20 6 45t6 31q0 8 -4 10t-14 2q-37 0 -74 -35.5t-84 -105.5q15 49 36.5 79.5t47.5 53.5t29 27q-45 0 -129.5 -47.5t-143.5 -108.5
q13 45 56.5 80t103.5 68t66 44q-95 -18 -161.5 -54.5t-106.5 -91.5t-58 -130q-63 -273 -63 -639q0 -249 31.5 -452.5t80.5 -284.5q16 -27 96.5 -47.5t203.5 -31.5t251 -11q190 0 335.5 24.5t188.5 73.5zM756 1860q-219 0 -219 -31q0 -16 62.5 -24.5t156.5 -8.5
q86 0 145.5 8.5t59.5 24.5t-57.5 23.5t-147.5 7.5z" />
    <glyph glyph-name="d" unicode="d" 
d="M1800 920q-2 -7 -2 -23q0 -75 33.5 -200t90 -253t114.5 -204q-249 -82 -508 -228q-205 19 -684 19q-175 0 -287 -1.5t-226.5 -3.5t-193 -3.5t-125.5 -2.5q64 129 123.5 372.5t91.5 467.5q103 44 205 99t199 117.5t188 131.5l645 -96q53 -59 116.5 -93.5t219.5 -98.5z
M852 1192q23 -50 96 -107.5t182.5 -115t237.5 -105.5q-248 144 -248 178q0 11 35 11l-137 54.5t-166 84.5zM735 983l-467 -158q-9 -108 -30 -216t-41 -188.5t-48 -181t-49 -173.5q66 5 178 8t189 3.5t205 2.5q4 96 7.5 202.5t10 223t16 218.5t29.5 259zM811 977
q-20 -201 -25.5 -379t-5.5 -438q145 331 459 608q-13 -15 -93 -99.5t-130.5 -149.5t-113.5 -178t-122 -259h267q218 0 409 -8q-34 124 -57 246.5t-35 245t-12 251.5zM1755 903l-110 -18q0 -111 26 -234.5t70 -237t98 -198.5l125 53q-59 86 -103.5 194t-70.5 219t-35 222z
M1561 860l-152 -33q-4 -72 -4 -112q0 -106 12 -216.5t36.5 -221t57.5 -199.5l234 102q-105 154 -140.5 320t-43.5 360zM356 692q40 -39 75 -119.5t58.5 -170t30.5 -138.5q-48 99 -164 428z" />
    <glyph glyph-name="f" unicode="f" 
d="M461 352q23 0 43.5 13t32.5 36t12 48q0 24 -12 48.5t-32 38t-44 13.5q-43 0 -72 -29t-29 -71q0 -40 29.5 -68.5t71.5 -28.5zM1901 1577q-86 -223 -86 -385q0 -99 26.5 -168.5t80 -159t82.5 -164.5t32 -176q-4 -98 -46 -142t-158 -139t-116 -151q-12 -35 -35 -35
q-14 0 -27.5 14.5t-13.5 30.5q0 22 27 37q-16 -13 -16 -35q0 -12 9 -22t19 -10q25 0 25 37q0 46 110 138t157.5 142.5t47.5 142.5q-3 102 -31.5 173.5t-82.5 163.5t-80.5 161t-26.5 166q0 75 20 164t66 213l-1368 -1010q32 -17 49 -47.5t17 -66.5q0 -58 -41 -97
q-41 -33 -86 -33q-36 0 -70.5 21t-56.5 59l-277 -202l-39 63l312 219q19 51 48.5 73.5t96.5 31.5l1440 1020q6 -3 6 -7q0 -6 -7 -13z" />
    <glyph glyph-name="g" unicode="g" 
d="M240 248q8 29 34 48t58 19q40 0 71 -34l1364 776q5 2 9 2t4 -4q0 -2 -4 -6l-1356 -793q8 -19 8 -41q0 -40 -30 -67t-70 -27q-39 0 -64 26q-8 0 -92 -43.5t-96 -52.5q-9 -8 -18.5 -22.5t-20.5 -14.5q-8 0 -12 2q-13 2 -13 39q4 11 44 36.5t94.5 56.5t85.5 49
q-1 8 -2.5 15.5t-2.5 14.5l-88 9q-2 0 -29.5 -11.5t-35.5 -11.5t-10 2q0 16 28.5 28.5t46.5 12.5zM1976 496q-8 8 -21.5 23.5t-28.5 27.5t-38 22.5t-53 18.5q-48 21 -71 40.5t-23 57.5q0 23 4 35l63 256q2 4 2 14q0 18 -8.5 31.5t-23.5 13.5q-14 0 -27 -8
q-38 -41 -144 -105.5t-171 -82.5q-43 -47 -114 -100t-164 -107.5t-175.5 -91t-142.5 -49.5q-31 -47 -186.5 -133.5t-229.5 -102.5l8 4q87 37 227.5 108t176.5 124q59 20 166 65.5t228.5 118.5t205.5 164q78 31 167 83t148 105q15 12 27 12q15 0 26 -13.5t11 -33.5
q0 -12 -3 -16q-10 -43 -34 -134.5t-33 -125.5q-4 -16 -4 -27q0 -71 98 -98q71 -20 99.5 -52.5t37.5 -43.5zM1980 457q0 4 -7.5 8.5t-8.5 5.5q0 19 12 25q25 0 25 -17q0 -4 -4 -11t-4 -11l4 -29q7 -20 18 -20q6 0 9.5 8.5t3.5 19.5l-5 8l13 -4l-8 -4q0 -28 -13 -33
q-15 0 -22 25q0 -20 -5 -26t-8 -7q-16 0 -24 29h-8l12 12v-12q3 -21 20 -21q11 0 11 17q0 3 -0.5 4.5t-1.5 3.5zM1985 465q12 6 12 14q0 13 -17 13q-12 -7 -12 -17q7 -10 17 -10z" />
    <glyph glyph-name="h" unicode="h" horiz-adv-x="983" 
d="M580 1896q-28 -81 -71 -240.5t-48 -279.5q0 -149 14.5 -305t65.5 -496q114 166 157.5 232t84 144.5t63 160.5t22.5 170q0 91 -24 199q-21 99 -114 225t-150 190zM555 1931q-51 6 -51 62q0 20 17.5 35.5t37.5 15.5q25 0 41 -15t16 -36q0 -44 -32 -58q3 0 49.5 -54
t93 -115.5t89.5 -142t54 -146.5q23 -117 23 -203q0 -85 -19 -156.5t-58.5 -151.5t-80 -144t-182.5 -281l-92 -504q63 0 98 46t45 77l-24 49l100 115q0 -10 -11.5 -56.5t-39.5 -120.5q-28 -85 -89.5 -114t-103.5 -29q-35 10 -76 51.5t-41 132.5t3.5 139.5t5.5 63.5l49 -147
l-37 -31q0 -37 17 -97.5t75 -74.5l88 504q-30 200 -52.5 363t-29 234t-6.5 144v70q2 0 2 8q0 2 -0.5 4t-1.5 4q0 -29 -11 -44t-26 -15q-19 0 -26 35l-289 -281q17 -14 43 -14q25 0 50 13t36 21v33l94 33q4 0 -102 -86q-39 -31 -76 -31q-33 0 -62 25q-28 28 -28 69
q0 33 20 70q43 61 57 81t19 28l-22 -97l-33 -4q-7 -10 -17 -34t-10 -48q0 -28 19 -47l297 293q3 30 14.5 53t23.5 23q25 0 33 -43q8 81 25.5 163.5t45 180.5t38 136t10.5 46zM559 1952q19 0 30 11t11 30q0 15 -11 25t-30 10q-15 0 -27 -10.5t-12 -24.5q0 -19 12 -30t27 -11z
M608 1599q-15 0 -26 11t-11 26q0 16 10.5 25.5t26.5 9.5q35 0 35 -35q0 -16 -9.5 -26.5t-25.5 -10.5zM735 1393q-20 0 -35.5 14.5t-15.5 36.5t15 35.5t36 13.5q23 0 36 -13t13 -36q0 -22 -13.5 -36.5t-35.5 -14.5zM575 1229q-30 0 -30 35q0 28 30 28q13 0 23 -8t10 -20
q0 -15 -10 -25t-23 -10zM684 1004q-24 0 -43.5 19.5t-19.5 43.5t19 45t44 21q28 0 46 -20.5t18 -45.5t-18 -44t-46 -19zM596 856q-33 0 -33 33q0 11 10.5 18.5t22.5 7.5q14 0 23.5 -7t9.5 -19q0 -33 -33 -33z" />
    <glyph glyph-name="j" unicode="j" horiz-adv-x="709" 
d="M403 1976q0 -24 -17.5 -41.5t-45.5 -17.5q-23 0 -41 19t-18 40q0 24 17.5 44t41.5 20q29 0 46 -18.5t17 -45.5zM352 688v-645q65 0 100 43.5t46.5 87.5t13.5 66l-37 53l96 164q4 0 -39 -252q-11 -81 -50 -125t-75 -56t-67 -16q-43 0 -106.5 39.5t-81.5 157.5
q-14 95 -22.5 156.5t-10 74.5t-2.5 21l96 -164l-37 -53q0 -46 27 -117.5t116 -79.5v645q0 12 -2 12q-3 0 -31.5 -48.5t-76.5 -123.5q-32 -47 -55 -47q-19 0 -19 21q0 15 12 30q22 32 47 84t25 60l-31 -29t-57 -39q-12 -6 -22 -6q-19 0 -19 19q0 13 10 26q22 22 56 78.5
t37 89.5q-40 -31 -66 -31q-27 0 -27 27q0 25 21 61q12 22 46 61t53.5 76t19.5 87q0 37 -13 75q-73 252 -73 422q0 135 40 205.5t82.5 90.5t63.5 20q58 0 127.5 -57.5t69.5 -249.5q0 -173 -76 -431q-17 -61 -17 -100q0 -71 25.5 -115.5t75.5 -99.5q22 -27 22 -49
q0 -23 -22 -23q-25 0 -53 31q4 -17 18 -40.5t30.5 -49.5t25.5 -43.5t9 -32.5t-16 -20q-9 -6 -18 -6q-21 0 -41.5 20.5l-20.5 20.5q0 -23 66 -132q4 -6 4 -18t-9.5 -22.5t-23.5 -10.5q-30 0 -47 47q-40 91 -68 129.5t-43 38.5q-6 0 -6 -8zM344 977q36 73 64 151.5t48 154.5
t33 160.5t13 162.5q0 76 -15.5 135t-50 92.5t-88.5 34.5q-82 0 -120 -68.5t-38 -185.5q0 -137 46 -319.5t108 -317.5zM360 1405q9 -48 9 -88q0 -26 -3.5 -46t-9.5 -43.5t-11 -54t-5 -55.5q0 -38 8 -82l-8 -4q-12 52 -12 88q0 38 14 100t14 99q0 36 -12 86h16z" />
    <glyph glyph-name="k" unicode="k" horiz-adv-x="2056" 
d="M944 1229q25 28 170.5 199.5t239.5 260t230.5 177t338.5 178.5q-98 -123 -150.5 -194t-96 -142.5t-115.5 -200.5q-51 -46 -96 -90.5t-110 -112t-111.5 -120.5t-90.5 -109q6 -6 6 -24q0 -24 -12.5 -52.5t-30.5 -42.5l-817 -901q-13 -16 -41 -16q-40 0 -95.5 38.5
t-94.5 93.5t-39 95q0 27 14 41l801 860q58 64 92 64q2 0 4 -0.5t4 -1.5zM948 1212q-3 1 -5 1.5t-5 0.5q-30 0 -82 -55l-793 -862q-14 -14 -14 -39q0 -37 35 -85t83.5 -81t84.5 -33q25 0 41 17l819 905q33 20 33 63q0 23 -8 31q56 72 123 149t147.5 161t136.5 135
q48 88 83 146t60 94.5t65 90t116 146.5q-183 -81 -311 -168t-219 -176t-226 -249t-164 -192zM831 1083q11 11 25 11q29 0 72 -27t73.5 -62.5t30.5 -60.5q0 -8 -8 -20l-600 -664q-12 -12 -33 -12q-32 0 -72.5 28t-69 67.5t-28.5 70.5q0 20 10 30zM999 1049q-30 0 -30 30
q0 12 9.5 20.5t20.5 8.5q13 0 23 -8t10 -21q0 -12 -10 -21t-23 -9zM227 205q-26 0 -26 31q0 12 8 22t18 10q16 0 24.5 -9.5t8.5 -22.5q0 -31 -33 -31zM1804 1952l-684 -731l68 -66l-64 -72l-159 125q134 164 211.5 253.5t170.5 179t206 168.5t251 143z" />
    <glyph glyph-name="l" unicode="l" horiz-adv-x="1456" 
d="M1067 1481q-12 0 -23.5 -12t-11.5 -29q0 -15 12 -25t23 -10q41 0 41 35q0 18 -10.5 29.5t-30.5 11.5zM328 1481q-16 0 -27.5 -12t-11.5 -29q0 -15 12 -25t27 -10q12 0 24.5 10t12.5 25q0 18 -11.5 29.5t-25.5 11.5zM700 1917q47 0 81 12.5t34 30.5q0 43 -115 43
q-120 0 -120 -43q0 -18 35.5 -30.5t84.5 -12.5zM700 276q-67 0 -165.5 8.5t-149.5 12.5q-60 0 -85.5 135.5t-25.5 329.5q0 84 6 185.5t13 148.5h407h404q0 -1 5.5 -64.5t8 -130.5t2.5 -143q0 -200 -24.5 -330.5t-83.5 -130.5q-52 -4 -149.5 -12.5t-162.5 -8.5zM952 1415
q-133 37 -256 37q-122 0 -252 -37l-53 -203l-328 240q0 -121 -2.5 -243.5l-5 -245t-2.5 -244.5q0 -349 35 -580q151 -40 292 -60t284 -20q283 0 641 80q34 250 34 580q0 61 -2 183t-4 199t-4 183.5t-2 167.5l-323 -240zM33 1544q0 47 126.5 100.5t305.5 110.5l39 217
q0 22 68.5 41t127.5 19q37 0 83 -9t78 -23t32 -28l39 -217q110 -36 200 -69t159 -71.5t69 -70.5q3 -101 5.5 -317.5t2.5 -362.5q0 -152 -1.5 -261t-4 -182.5t-9.5 -162.5t-18 -145q-129 -42 -305.5 -64t-355.5 -22q-182 0 -350 23t-269 63q-41 128 -41 684q0 213 5 399
t14 348zM512 1683l-33 -122h445l-31 122q-91 -34 -182 -34t-199 34z" />
    <glyph glyph-name="z" unicode="z" horiz-adv-x="1579" 
d="M289 924q-289 36 -289 147q3 49 124 84t275 41v31q0 80 30.5 146t86.5 91q-61 172 -61 375q0 64 6 129q10 78 39 78q18 0 45 -57q55 -147 78.5 -226t23.5 -172q0 -19 -1 -28.5t-2 -24.5t-3 -35q27 13 55 13q15 0 32 -2.5t24 -2.5q-9 45 -9 105q0 156 76 360q17 49 35 49
q12 0 31 -49q37 -133 37 -254q0 -116 -33 -266q31 -20 60 -64.5t47 -95t18 -88.5q0 -16 -2 -24q141 -5 280.5 -34.5t139.5 -92.5q-3 -65 -113.5 -109.5t-247.5 -44.5l66 -743q-9 -43 -76.5 -77.5t-172 -53.5t-212.5 -19q-158 0 -271.5 38.5t-136.5 115.5zM418 1200
q0 -25 21.5 -65t52.5 -52q12 -9 12 -20q0 -32 -60 -55q148 -35 277 -35q110 0 240 26q-26 7 -41 19.5t-15 28.5q0 19 25 28q34 17 45 43.5t16 65.5q2 8 2 24q0 59 -33.5 130t-99.5 122q41 127 41 264q0 115 -24 199q-15 53 -27 53q-10 0 -27 -41q-10 -34 -19.5 -66.5
t-19.5 -80.5t-15 -89.5t-5 -82.5q0 -62 12 -127q-55 12 -82 12q-28 0 -73 -16q10 35 10 94q0 164 -111 418q-9 18 -18 18q-20 0 -27 -43q-2 -30 -2 -104q0 -115 15.5 -225.5t48.5 -178.5q-60 -29 -90.5 -89t-30.5 -142q0 -23 2 -33zM1053 891h-97l48 -795q40 3 67.5 21.5
t36.5 42.5zM571 1300q-15 0 -27 11t-12 28t12 29t27 12q17 0 29 -12t12 -29t-12 -28t-29 -11zM760 1313q-15 0 -27 12t-12 27q0 17 11 29t28 12q18 0 29.5 -11t11.5 -30q0 -16 -12 -27.5t-29 -11.5zM688 1184q-19 0 -29 16q-36 -9 -90 -23t-57 -14q0 1 52 17.5t87 27.5
q0 2 -77.5 7t-77.5 6q18 0 49 -0.5t69 -1.5q41 0 41 2v4q-35 9 -87 22.5t-52 16.5q8 0 59 -13t84 -22q9 18 29 18t29 -14q5 0 96.5 13.5t99.5 13.5q0 -2 -96 -19t-96 -20q52 -4 103.5 -8.5t103.5 -8.5q-24 1 -72.5 2.5t-91.5 1.5h-43l112.5 -32.5t67.5 -20.5
q-5 0 -72.5 15.5t-111.5 25.5q-12 -12 -29 -12zM571 1327q13 0 13 12q0 13 -13 13q-12 0 -12 -13q0 -12 12 -12zM760 1339q16 0 16 13q0 12 -16 12q-12 0 -12 -12q0 -13 12 -13zM1296 1116q35 -25 35 -59q0 -59 -127 -121q42 7 87.5 28t74.5 47t29 48q0 43 -99 57z" />
    <glyph glyph-name="x" unicode="x" horiz-adv-x="1489" 
d="M104 2007q-26 0 -40.5 -22t-14.5 -50v-1831q0 -28 14.5 -47.5t40.5 -19.5h1217q25 0 44 20t19 47v1831q0 27 -19.5 49.5t-43.5 22.5h-1217zM84 2040h1264q31 0 52 -21t21 -51v-1892q0 -28 -21 -50t-52 -22h-1264q-30 0 -51 22t-21 50v1892q0 30 21 51t51 21zM457 1057
q8 37 75.5 105.5t120 125t60.5 113.5q9 -65 40 -103t110.5 -115.5t97.5 -125.5q10 -32 10 -49q0 -49 -37.5 -80t-87.5 -31q-38 0 -69.5 21t-51.5 63q0 -84 37.5 -138.5t152.5 -66.5l9 -16h-432l12 16q92 12 146.5 52t54.5 153q-56 -84 -134 -84q-50 0 -84 35t-34 90
q0 22 4 35zM109 1671q3 12 36 44t35 48q1 -17 10 -27t31 -31t27 -34q4 -8 4 -10q0 -12 -13 -21.5t-26 -9.5q-25 0 -33 23q0 -48 56 -54v-4h-115l4 4q51 0 51 54q-14 -23 -35 -23q-13 0 -22.5 12t-9.5 29zM1171 352q0 19 8.5 31t20.5 12q18 0 37 -22q0 31 -14 41t-39 14l-4 4
h116l-4 -4q-53 -5 -53 -55q11 22 35 22q14 0 23.5 -7.5t9.5 -22.5q0 -9 -2 -13q-3 -9 -23.5 -29.5t-31 -34t-11.5 -28.5q-1 16 -10.5 27t-32 32.5t-25.5 32.5zM1192 227h20l13 -34h47l12 34h21l-50 -127h-18zM1229 176l18 -51l17 51h-35zM104 1812l43 123h25l43 -123h-18
l-13 35h-49l-10 -35h-21zM139 1860h41l-20 53z" />
    <glyph glyph-name="c" unicode="c" horiz-adv-x="2140" 
d="M952 1444q21 2 62 2q174 0 340 -74.5t304.5 -203t238 -292t143.5 -335.5l-1335 -533q-64 47 -203 130.5t-265 152t-229 117.5q44 285 170 514t325 366t449 156zM983 1409q-46 -98 -69.5 -171.5t-41.5 -180.5q163 43 320.5 109t222.5 126q-79 55 -185 86t-210 31h-37z
M940 1405q-113 -7 -258.5 -64.5t-212.5 -132.5q227 -123 354 -147q18 99 46 177t71 167zM776 59l625 252l-162 549q-21 -91 -136.5 -190t-242.5 -150v-94q0 -114 -14.5 -176.5t-69.5 -190.5zM1440 332l481 184q-55 15 -113.5 108t-62.5 136q-257 30 -485 143zM868 504
l31 -55l-27 -13zM868 512l56 -12l-4 -31zM1741 748l-4 -68l-29 12zM1737 756l-49 -43l-13 30z" />
    <glyph glyph-name="v" unicode="v" horiz-adv-x="1489" 
d="M315 1348q-88 -49 -88 -78q0 -19 18 -28.5t74 -29.5zM1243 1149q25 -3 25 -21q0 -16 -13 -20q11 -2 11 -18q0 -23 -15 -23q13 -3 13 -18q0 -21 -27 -21q4 -12 4 -14q0 -15 -20 -15q-11 0 -29 9q-14 8 -28.5 16.5t-26.5 19t-13 21.5q-3 0 -14.5 -15.5t-13.5 -17.5
q-47 22 -84 60t-78.5 100t-67.5 95.5t-61 51.5q-10 -75 -10 -129q0 -121 45 -266q0 -2 -12.5 -3t-12.5 -5q24 -85 44.5 -213.5t39.5 -268.5t32 -217t25 -102l-20 -4q35 -38 35 -72q0 -25 -19.5 -40t-48.5 -15h-123q-39 6 -39 49q0 34 27 76q-4 2 -10 2q-10 0 -27 8
q-28 236 -61 382.5t-82 293.5q-37 -32 -61.5 -124.5t-37 -179t-28.5 -223.5t-27 -159h-26q38 -34 38 -72q0 -22 -14 -37.5t-33 -15.5h-127q-16 0 -29.5 14.5t-13.5 34.5q0 36 39 76h-28q3 71 22 191.5t36 218.5t27.5 181t10.5 169v31q-17 0 -17 4v147q-132 36 -221.5 96.5
t-89.5 124.5q3 35 116.5 127.5t186.5 136.5q28 15 52.5 22t55 12t48.5 9q-12 17 -30.5 47t-28.5 95q-1 0 -50 2.5t-51 7.5q0 6 40 11t61 10l-46 243l322 33l29 -272q24 -2 45.5 -2.5t39 -2.5t17.5 -8t-15 -8.5t-41.5 -5t-45.5 -8.5q-15 -101 -49 -137q107 -10 188 -48
q29 -15 53 -48.5t80 -118.5t98.5 -136t92.5 -82q0 -4 -5 -10t-8 -6q22 6 31 6q10 0 16.5 -3.5t10.5 -4.5l180 363l18 -9zM549 1548l-82 31v-84l82 25q9 -11 18 -11q15 0 21 11l71 -31v90l-71 -31q-8 8 -21 8q-10 0 -18 -8z" />
    <glyph glyph-name="b" unicode="b" 
d="M1020 8q-273 0 -506 136.5t-369.5 369.5t-136.5 506q0 205 79 391.5t220 327.5t324 219t389 78q209 0 392 -77.5t326 -220.5t220.5 -326t77.5 -392q0 -206 -78 -389t-219 -324t-327.5 -220t-391.5 -79zM1020 248q157 0 299 59.5t250 167.5t167.5 249t59.5 296
q0 157 -59.5 299t-167 249.5t-250 167.5t-299.5 60q-155 0 -296 -59.5t-248.5 -167t-167.5 -250t-60 -299.5q0 -155 59.5 -296t167.5 -249t249 -167.5t296 -59.5zM1485 1595l71 -55l48 -76l-101 -88l-76 25l-180 -172q-15 -25 -63 -25l-189 -147l172 160q0 43 25 63l205 152
l-17 75zM1331 1401l-147 -113q-27 -23 -27 -49q1 -5 1.5 -9t0.5 -9l-22 -21q-43 31 -117 31q-56 0 -103 -28t-75.5 -76.5t-28.5 -106.5q0 -56 28 -103.5t75.5 -75.5t103.5 -28q58 0 106.5 28.5t76.5 75.5t28 103q0 46 -16.5 89t-47.5 62l25 21q33 0 51 12l146 144
q127 -149 127 -328q0 -133 -67 -246t-181 -179.5t-248 -66.5q-100 0 -189.5 38t-158 106.5t-106.5 158t-38 189.5q0 134 66.5 248t179.5 181t246 67q195 -6 311 -115z" />
    <glyph glyph-name="n" unicode="n" 
d="M1683 1067q24 -18 50 -54.5t42.5 -76.5t16.5 -66q0 -32 -29 -32q-4 1 -7 1.5t-7 0.5q-22 0 -59.5 -114.5t-95 -287t-128.5 -284t-157 -111.5q-114 0 -309.5 -9t-266.5 -9q-103 0 -194.5 8t-178 29t-155.5 55q-93 63 -131.5 146t-38.5 188q0 65 10 130t30 170t31 189.5
t11 165.5q0 139 -45 266q-29 73 -29 180q0 115 35.5 221.5t100 175t143.5 68.5q60 0 122 -43q121 -25 221.5 -44.5t163.5 -27.5t117.5 -11.5t190.5 -10.5q24 46 63.5 83.5t85.5 58t94 20.5q109 0 168 -107q45 -74 45 -137q0 -22 -6 -43q59 -44 77.5 -110.5t18.5 -161.5v-72
q-2 -35 -19 -134.5t-17 -139.5q0 -65 36 -70zM1225 1884q89 10 202 37q-25 45 -79 45q-40 0 -75 -23t-48 -59zM563 1720q238 -90 387 -90q104 0 115 53l68 -4q9 -24 56 -43.5t114 -19.5q76 0 149 24q61 18 61 80q0 70 -61 160q-168 -57 -391 -57q-77 0 -170.5 8.5t-169.5 23
t-150 33.5q-16 8 -26 8q-19 0 -40 -12t-34.5 -32t-13.5 -42q0 -62 106 -90zM532 1675q-32 0 -61.5 -60t-55.5 -140.5t-50 -157.5q0 28 9 80.5t20 111.5t17.5 102.5t6.5 78.5q0 51 -19 59q-21 -40 -58 -97.5t-55.5 -92.5t-31 -84t-12.5 -115q0 -45 2 -72q1 -6 1.5 -11
t0.5 -13q0 -81 -14.5 -136t-55.5 -195.5t-61.5 -259t-20.5 -259.5q0 -60 2 -90q18 -136 225 -195t498 -59q172 0 327.5 19t201.5 40q55 22 80 63t40 93q-162 -11 -188 -11q-84 0 -153.5 13t-135.5 45q-93 -21 -125 -28.5t-86 -15t-108 -7.5q-139 0 -228 59q-49 85 -49 221
q0 22 5.5 116.5t5.5 135.5q0 35 -3 51q-77 43 -77 109q0 74 98 155q24 23 108 23q67 0 213 -16.5t209 -16.5q45 0 78 6l29 459q-58 -10 -107 -10q-135 0 -321 67q-8 -8 -88 -225q0 3 4 59.5t4 102.5q0 88 -21 98zM387 1892q-30 31 -70 31q-48 0 -94 -52t-74 -134t-28 -160
t26 -137q24 114 89.5 233t150.5 219zM1565 1733q0 -80 -73.5 -124t-182.5 -44q-92 0 -172 30l-13 -479l471 4q19 80 35.5 178.5t16.5 190.5q0 57 -8 103.5t-27 83.5t-47 57zM487 1100q-19 -4 -62.5 -46t-43.5 -77q0 -83 244 -88q5 0 14 39.5t20.5 63.5t32.5 24q19 0 33 -12
q10 -11 10 -29q0 -13 -10.5 -40.5t-11.5 -37.5q-1 -1 -2 -1.5t-2 -0.5q12 -1 50.5 -3.5t55.5 -2.5q225 0 225 115q0 22 -12 57q-51 4 -196 19t-194 19.5t-101 4.5q-37 0 -50 -4zM1548 1065h-424q11 -74 50 -118.5t85 -60t94.5 -18.5t69.5 -4q9 3 9 13t-11.5 42.5t-11.5 43.5
q0 24 31 24q25 -1 36 -20.5t17.5 -55.5t13.5 -47l189 17q33 0 33 30q0 29 -21 66.5t-57 63.5t-80 26q-15 0 -23 -2zM1204 840q-40 25 -65 58.5t-36 62.5t-11 34q0 -58 -32.5 -98.5t-74.5 -48.5q20 -68 33.5 -146.5t13.5 -146.5v-23q16 41 37 85t35 67t50.5 79t49.5 77z
M623 823q-49 7 -83 12.5t-43 7t-40 1.5q-2 -23 -7.5 -84.5t-8.5 -102.5t-3 -94q0 -136 33 -190q109 -39 244 -39t221 47q47 60 47 162q0 33 -4 67t-12 74t-14 65t-21 87l-232 -9q-4 -36 -4 -59q0 -31 7 -94t10 -94q0 -19 -35 -19q-22 0 -37 6q-23 111 -23 187q0 14 5 69z
M1272 819q-43 -59 -104 -162t-96.5 -179.5t-35.5 -104.5q30 -33 211 -33q137 0 242 12q28 42 53.5 100.5t48 124t33.5 103t41 143.5q-27 0 -80 -4t-78 -4q0 -130 -123 -266q-11 -8 -22 -8q-12 0 -23.5 8.5t-11.5 17.5q0 8 32 57.5t56.5 99.5t24.5 91q-43 -6 -82 -6
q-47 0 -86 10z" />
    <glyph glyph-name="m" unicode="m" horiz-adv-x="1112" 
d="M680 1057q20 20 20 137q0 84 -11 178t-25 127q-20 47 -121 47q-50 0 -122 -12t-126 -27t-110 -36t-72 -31q-80 140 -80 329q0 149 47 271q167 -51 325.5 -70.5t296.5 -19.5q56 0 144.5 5t105.5 5q33 -33 52.5 -106.5t19.5 -157.5q0 -75 -17.5 -141t-54.5 -107
q-13 7 -43 22.5t-51.5 24t-38.5 8.5q-20 0 -33 -14q-22 -43 -22 -193q0 -120 12 -231q21 -21 38.5 -36t29.5 -32.5t12 -44.5q-8 -80 -13.5 -133.5t-12.5 -117t-9 -94t-2 -75.5q0 -61 5 -129t13.5 -141.5t30.5 -236.5q-76 -17 -143 -17q-66 0 -145 17q32 267 42.5 366.5
t10.5 186.5q0 99 -29 374q0 25 12.5 43.5t30 33t33.5 28.5zM100 2015q-47 -93 -47 -241q0 -95 20 -180t48 -117q105 47 218.5 72.5t217.5 25.5q205 0 383 -94q55 74 55 217q0 79 -17.5 147t-41.5 90q-147 -10 -258 -10q-157 0 -293 20.5t-285 69.5zM143 1972l13 -4
q-31 -85 -31 -180q0 -108 43 -256l-16 -8q-23 82 -34.5 141.5t-11.5 126.5q0 99 37 180z" />
  </font>
</defs>
</svg>
